<?xml version="1.0" encoding="UTF-8" standalone="no"?>
<!-- Created with Inkscape (http://www.inkscape.org/) -->

<svg
   width="81.112816mm"
   height="153.39859mm"
   viewBox="0 0 81.112816 153.39859"
   version="1.1"
   id="svg5"
   inkscape:version="1.1.2 (0a00cf5339, 2022-02-04)"
   sodipodi:docname="mavilab-logo.svg"
   inkscape:export-filename="/home/michelms/Pictures/inkscape/mavilab-logo.png"
   inkscape:export-xdpi="62.628822"
   inkscape:export-ydpi="62.628822"
   xmlns:inkscape="http://www.inkscape.org/namespaces/inkscape"
   xmlns:sodipodi="http://sodipodi.sourceforge.net/DTD/sodipodi-0.dtd"
   xmlns="http://www.w3.org/2000/svg"
   xmlns:svg="http://www.w3.org/2000/svg">
  <sodipodi:namedview
     id="namedview7"
     pagecolor="#ffffff"
     bordercolor="#666666"
     borderopacity="1.0"
     inkscape:pageshadow="2"
     inkscape:pageopacity="0.0"
     inkscape:pagecheckerboard="0"
     inkscape:document-units="mm"
     showgrid="false"
     inkscape:snap-global="false"
     inkscape:zoom="0.64052329"
     inkscape:cx="239.6478"
     inkscape:cy="286.48451"
     inkscape:window-width="1920"
     inkscape:window-height="1016"
     inkscape:window-x="0"
     inkscape:window-y="417"
     inkscape:window-maximized="1"
     inkscape:current-layer="layer1"
     fit-margin-top="0"
     fit-margin-left="0"
     fit-margin-right="0"
     fit-margin-bottom="0" />
  <defs
     id="defs2" />
  <g
     inkscape:label="Layer 1"
     inkscape:groupmode="layer"
     id="layer1"
     transform="translate(-39.260893,-24.585962)">
    <g
       id="g3542">
      <rect
         style="opacity:1;fill:#4d4d4d;stroke:#000000;stroke-width:0.882592;stroke-miterlimit:4;stroke-dasharray:none"
         id="rect2326"
         width="8.7640657"
         height="8.1375809"
         x="52.584663"
         y="169.40567"
         ry="2.8527327" />
      <rect
         style="fill:#4d4d4d;stroke:#000000;stroke-width:0.882592;stroke-miterlimit:4;stroke-dasharray:none"
         id="rect2326-6"
         width="8.7640657"
         height="8.1375809"
         x="97.702103"
         y="169.40567"
         ry="2.8527327" />
      <g
         id="g3525">
        <g
           id="g30179">
          <rect
             style="opacity:1;fill:#ececec;stroke:#000000;stroke-width:1;stroke-miterlimit:4;stroke-dasharray:none"
             id="rect31"
             width="68.291412"
             height="110.49783"
             x="45.671597"
             y="64.220604"
             rx="5.104753"
             ry="5.104753" />
          <g
             id="g30062">
            <rect
               style="opacity:1;fill:#ffffff;stroke:#ffffff;stroke-width:1.2;stroke-miterlimit:4;stroke-dasharray:none"
               id="rect29301"
               width="60.382359"
               height="7.8829651"
               x="49.626122"
               y="163.74861"
               ry="0"
               rx="0" />
            <text
               xml:space="preserve"
               style="font-style:normal;font-variant:normal;font-weight:bold;font-stretch:normal;font-size:7.26386px;line-height:1.25;font-family:C059;-inkscape-font-specification:'C059 Bold';letter-spacing:0px;stroke-width:0.181598"
               x="50.305759"
               y="170.56618"
               id="text12645"><tspan
                 sodipodi:role="line"
                 id="tspan12643"
                 style="font-style:normal;font-variant:normal;font-weight:bold;font-stretch:normal;font-family:C059;-inkscape-font-specification:'C059 Bold';stroke-width:0.181598"
                 x="50.305759"
                 y="170.56618">MaVILab<tspan
   style="font-size:2.79164px;stroke-width:0.181598"
   id="tspan27992"> </tspan>@<tspan
   style="font-size:2.79164px;stroke-width:0.181598"
   id="tspan28480"> </tspan>UFV</tspan></text>
          </g>
        </g>
        <g
           id="g3511"
           transform="translate(0,-1.0583333)">
          <circle
             style="opacity:1;fill:none;stroke:#000000;stroke-width:1;stroke-miterlimit:4;stroke-dasharray:none"
             id="path1299"
             cx="101.99612"
             cy="157.44304"
             r="2.9744413" />
          <g
             id="g3504">
            <circle
               style="opacity:1;fill:none;stroke:#000000;stroke-width:1;stroke-miterlimit:4;stroke-dasharray:none"
               id="path1301"
               cx="101.99612"
               cy="144.08043"
               r="5.8489423" />
            <rect
               style="opacity:1;fill:#ececec;stroke:none;stroke-width:1.2;stroke-miterlimit:4;stroke-dasharray:none"
               id="rect2178"
               width="2.9703071"
               height="7.9096813"
               x="100.51096"
               y="134.42993" />
            <path
               style="fill:none;stroke:#000000;stroke-width:1.2;stroke-linecap:butt;stroke-linejoin:miter;stroke-miterlimit:4;stroke-dasharray:none;stroke-opacity:1"
               d="m 101.99612,135.42107 v 5.99692"
               id="path1416"
               sodipodi:nodetypes="cc" />
          </g>
        </g>
        <g
           id="g3499"
           transform="translate(0,-7.9375004)">
          <path
             style="fill:none;stroke:#000000;stroke-width:1.2;stroke-linecap:butt;stroke-linejoin:miter;stroke-miterlimit:4;stroke-dasharray:none;stroke-opacity:1"
             d="M 51.360954,165.40213 H 73.840218"
             id="path1416-7"
             sodipodi:nodetypes="cc" />
          <path
             style="fill:none;stroke:#000000;stroke-width:1.2;stroke-linecap:butt;stroke-linejoin:miter;stroke-miterlimit:4;stroke-dasharray:none;stroke-opacity:1"
             d="M 51.360954,162.73734 H 68.874486"
             id="path1416-7-5"
             sodipodi:nodetypes="cc" />
          <path
             style="fill:none;stroke:#000000;stroke-width:1.2;stroke-linecap:butt;stroke-linejoin:miter;stroke-miterlimit:4;stroke-dasharray:none;stroke-opacity:1"
             d="M 51.360954,160.07255 H 63.6772"
             id="path1416-7-5-3"
             sodipodi:nodetypes="cc" />
          <path
             style="fill:none;stroke:#000000;stroke-width:1.2;stroke-linecap:butt;stroke-linejoin:miter;stroke-miterlimit:4;stroke-dasharray:none;stroke-opacity:1"
             d="M 51.360954,157.40776 H 63.957173"
             id="path1416-7-5-3-5"
             sodipodi:nodetypes="cc" />
        </g>
      </g>
    </g>
    <g
       id="g5377"
       transform="matrix(0.02227753,0,0,-0.02227753,31.465625,118.68157)">
      <path
         d="m 2013.91,1775.03 h 313.031 V 4039.78 H 2013.91 Z"
         style="fill:#fabb1e;fill-opacity:1;fill-rule:nonzero;stroke:none"
         id="path5041" />
      <path
         d="m 1518.33,1627.93 c 0,0 43.77,-199.78 162.16,-262.87 118.39,-63.09 252.33,-36.82 319.01,9.86 66.68,46.67 89.84,253.01 89.84,253.01 h -571.01"
         style="fill:#fabb1e;fill-opacity:1;fill-rule:nonzero;stroke:none"
         id="path5043" />
      <path
         d="m 1832.31,1327.75 c -49.23,0 -101.91,10.71 -151.82,37.31 -17.92,9.55 -34.13,22.23 -48.74,36.88 5.85,2.58 20.85,10.51 34.87,28.93 10.28,-9.33 21.45,-17.47 33.53,-23.91 41.95,-22.35 86.24,-31.36 127.62,-31.36 56.79,-0.01 108.11,16.95 140.54,39.65 1.91,1.33 3.78,2.83 5.6,4.46 -7.38,-22.89 -19.53,-46.45 -27.21,-71.87 -33.1,-12.34 -72.49,-20.1 -114.39,-20.09"
         style="fill:#f4ac12;fill-opacity:1;fill-rule:nonzero;stroke:none"
         id="path5045" />
      <path
         d="m 1827.77,1375.6 c -41.38,0 -85.67,9.01 -127.62,31.36 -12.08,6.44 -23.25,14.58 -33.53,23.91 15.17,19.94 29.19,52.17 29.18,103.19 -0.01,7.04 -0.27,14.44 -0.84,22.22 27.46,16.48 49.98,32.96 68.45,49.35 4.47,-12.82 11.1,-24.16 20.42,-32.94 51.13,-48.16 195.12,-63.46 196.41,-115.97 0.01,-0.61 0.02,-1.23 0.02,-1.84 0.01,-11.66 -2.53,-23.33 -6.35,-35.17 -1.82,-1.63 -3.69,-3.13 -5.6,-4.46 -32.43,-22.7 -83.75,-39.66 -140.54,-39.65"
         style="fill:#f7d275;fill-opacity:1;fill-rule:nonzero;stroke:none"
         id="path5047" />
      <path
         d="m 934.504,1585.81 c 0,0 13.129,-82.05 54.703,-98.46 0,0 -4.379,-52.51 51.413,-66.74 0,0 -1.09,-32.82 50.33,-43.76 0,0 8.77,-27.35 60.73,-22.97 0,0 28.98,-33.91 73.83,-14.22 0,0 26.26,-31.73 75.49,-15.32 0,0 42.67,-18.17 71.11,-4.71 0,0 42.67,-18.26 70.02,6.9 0,0 44.85,-29.54 72.2,10.94 0,0 38.29,-15.32 61.27,19.69 0,0 43.76,12.04 53.6,43.76 0,0 86.43,28.45 62.36,184.89 H 934.504"
         style="fill:#fabb1e;fill-opacity:1;fill-rule:nonzero;stroke:none"
         id="path5049" />
      <path
         d="m 1404.95,1313.23 c -17.88,0 -32.84,6.4 -32.84,6.4 -7.69,-3.64 -16.41,-4.97 -25.06,-4.97 -23.33,0 -46.05,9.68 -46.05,9.68 -10.12,-3.37 -19.26,-4.71 -27.41,-4.71 -31.5,0 -48.08,20.03 -48.08,20.03 -10.09,-4.43 -19.38,-6.15 -27.71,-6.15 -28.71,0 -46.12,20.37 -46.12,20.37 -3.85,-0.33 -7.46,-0.48 -10.85,-0.48 -42.36,0 -49.88,23.45 -49.88,23.45 -49.31,10.49 -50.33,41.11 -50.33,43.6 0,0.11 0,0.16 0,0.16 v 0 0 c -48.218,12.3 -51.495,53.19 -51.495,64.06 0,1.71 0.082,2.68 0.082,2.68 v 0 0 c -15.562,6.14 -27.137,21.48 -35.531,38.27 23.566,-17.5 51.854,-35.07 85.154,-50.35 5.33,-12.47 16.46,-26 39.61,-31.9 0,0 -0.95,-28.3 43.39,-37.74 0,0 6.48,-20.21 43.01,-20.21 2.92,0 6.03,0.12 9.35,0.4 0,0 15.01,-17.56 39.77,-17.56 7.19,0 15.2,1.48 23.9,5.3 0,0 14.29,-17.27 41.46,-17.27 7.02,0 14.91,1.16 23.63,4.06 0,0 19.59,-8.34 39.71,-8.34 7.45,0 14.97,1.14 21.6,4.28 0,0 12.9,-5.52 28.32,-5.52 10.62,0 22.44,2.62 32.06,11.47 0,0 13.62,-8.97 29.62,-8.97 10.97,0 23.05,4.21 32.64,18.4 0,0 7.19,-2.87 16.87,-2.87 11.07,0 25.39,3.75 35.95,19.85 0,0 37.74,10.38 46.23,37.74 0,0 52.14,17.16 57.05,101.72 19.04,9.39 36.3,18.78 51.96,28.17 0.57,-7.78 0.83,-15.18 0.84,-22.22 0.01,-51.02 -14.01,-83.25 -29.18,-103.19 -14.02,-18.42 -29.02,-26.35 -34.87,-28.93 -1.63,-0.72 -2.55,-1.02 -2.55,-1.02 -9.84,-31.72 -53.6,-43.76 -53.6,-43.76 -12.26,-18.67 -28.87,-23.03 -41.7,-23.03 -11.23,0 -19.57,3.34 -19.57,3.34 -11.12,-16.46 -25.13,-21.34 -37.85,-21.34 -18.56,0 -34.35,10.4 -34.35,10.4 -11.16,-10.26 -24.86,-13.3 -37.18,-13.3"
         style="fill:#f4ac12;fill-opacity:1;fill-rule:nonzero;stroke:none"
         id="path5051" />
      <path
         d="m 1392.58,1350.77 c -15.42,0 -28.32,5.52 -28.32,5.52 -6.63,-3.14 -14.15,-4.28 -21.6,-4.28 -20.12,0 -39.71,8.34 -39.71,8.34 -8.72,-2.9 -16.61,-4.06 -23.63,-4.06 -27.17,0 -41.46,17.27 -41.46,17.27 -8.7,-3.82 -16.71,-5.3 -23.9,-5.3 -24.76,0 -39.77,17.56 -39.77,17.56 -3.32,-0.28 -6.43,-0.4 -9.35,-0.4 -36.53,0 -43.01,20.21 -43.01,20.21 -44.34,9.44 -43.39,37.74 -43.39,37.74 -23.15,5.9 -34.28,19.43 -39.61,31.9 58.16,-26.69 131.55,-46.38 221.53,-46.38 51.39,0 108.23,6.43 170.7,21.64 34.02,8.28 69.69,19.16 107.11,33.03 14.36,5.33 28.06,10.66 41.11,16.01 23.19,9.49 44.37,19.01 63.72,28.54 -4.91,-84.56 -57.05,-101.72 -57.05,-101.72 -8.49,-27.36 -46.23,-37.74 -46.23,-37.74 -10.56,-16.1 -24.88,-19.85 -35.95,-19.85 -9.68,0 -16.87,2.87 -16.87,2.87 -9.59,-14.19 -21.67,-18.4 -32.64,-18.4 -16,0 -29.62,8.97 -29.62,8.97 -9.62,-8.85 -21.44,-11.47 -32.06,-11.47"
         style="fill:#f7d275;fill-opacity:1;fill-rule:nonzero;stroke:none"
         id="path5053" />
      <path
         d="m 2822.52,1627.93 c 0,0 -43.77,-199.78 -162.16,-262.87 -118.39,-63.09 -252.33,-36.82 -319.01,9.86 -66.68,46.67 -89.85,253.01 -89.85,253.01 h 571.02"
         style="fill:#fabb1e;fill-opacity:1;fill-rule:nonzero;stroke:none"
         id="path5055" />
      <path
         d="m 2508.54,1327.75 c -41.9,0 -81.29,7.75 -114.39,20.09 -7.68,25.42 -19.83,48.98 -27.21,71.87 1.82,-1.64 3.69,-3.13 5.6,-4.46 32.43,-22.7 83.75,-39.65 140.54,-39.65 41.38,0 85.67,9.01 127.61,31.36 12.09,6.44 23.26,14.58 33.54,23.91 14.02,-18.42 29.01,-26.35 34.87,-28.93 -14.61,-14.65 -30.82,-27.33 -48.74,-36.88 -49.91,-26.6 -102.59,-37.31 -151.82,-37.31"
         style="fill:#f4ac12;fill-opacity:1;fill-rule:nonzero;stroke:none"
         id="path5057" />
      <path
         d="m 2513.08,1375.6 c -56.79,0 -108.11,16.95 -140.54,39.65 -1.91,1.33 -3.78,2.82 -5.6,4.46 -3.8,11.79 -6.34,23.41 -6.35,35.01 0,0.67 0,1.34 0.02,2 1.28,52.51 145.28,67.81 196.41,115.97 9.32,8.78 15.95,20.12 20.42,32.94 18.47,-16.39 40.99,-32.87 68.45,-49.35 -0.57,-7.77 -0.84,-15.18 -0.84,-22.22 -0.01,-51.02 14.01,-83.25 29.18,-103.19 -10.28,-9.33 -21.45,-17.47 -33.54,-23.91 -41.94,-22.35 -86.23,-31.36 -127.61,-31.36"
         style="fill:#f7d275;fill-opacity:1;fill-rule:nonzero;stroke:none"
         id="path5059" />
      <path
         d="m 3406.34,1585.81 c 0,0 -13.12,-82.05 -54.7,-98.46 0,0 4.38,-52.51 -51.42,-66.74 0,0 1.1,-32.82 -50.32,-43.76 0,0 -8.77,-27.35 -60.73,-22.97 0,0 -28.98,-33.91 -73.83,-14.22 0,0 -26.26,-31.73 -75.49,-15.32 0,0 -42.67,-18.17 -71.11,-4.71 0,0 -42.67,-18.26 -70.02,6.9 0,0 -44.85,-29.54 -72.2,10.94 0,0 -38.29,-15.32 -61.27,19.69 0,0 -43.76,12.04 -53.6,43.76 0,0 -86.43,28.45 -62.36,184.89 h 757.05"
         style="fill:#fabb1e;fill-opacity:1;fill-rule:nonzero;stroke:none"
         id="path5061" />
      <path
         d="m 2935.9,1313.23 c -12.32,0 -26.02,3.04 -37.18,13.3 0,0 -15.79,-10.4 -34.35,-10.4 -12.72,0 -26.73,4.88 -37.85,21.34 0,0 -8.34,-3.34 -19.57,-3.34 -12.84,0 -29.45,4.36 -41.7,23.03 0,0 -43.76,12.04 -53.6,43.76 0,0 -19.52,6.42 -37.42,29.95 -15.17,19.94 -29.19,52.17 -29.18,103.19 0,7.04 0.27,14.45 0.84,22.22 15.66,-9.39 32.92,-18.78 51.96,-28.17 4.91,-84.56 57.05,-101.72 57.05,-101.72 8.49,-27.36 46.22,-37.74 46.22,-37.74 10.57,-16.1 24.89,-19.85 35.96,-19.85 9.68,0 16.87,2.87 16.87,2.87 9.59,-14.19 21.67,-18.4 32.64,-18.4 16,0 29.62,8.97 29.62,8.97 9.62,-8.85 21.44,-11.47 32.06,-11.47 15.42,0 28.31,5.52 28.31,5.52 6.63,-3.14 14.16,-4.28 21.61,-4.28 20.12,0 39.71,8.34 39.71,8.34 8.72,-2.9 16.61,-4.06 23.63,-4.06 27.17,0 41.46,17.27 41.46,17.27 8.7,-3.82 16.71,-5.3 23.9,-5.3 24.75,0 39.77,17.56 39.77,17.56 3.32,-0.28 6.43,-0.4 9.35,-0.4 36.52,0 43.01,20.21 43.01,20.21 44.34,9.44 43.39,37.74 43.39,37.74 23.14,5.9 34.28,19.43 39.61,31.9 33.3,15.28 61.59,32.85 85.15,50.35 -8.39,-16.79 -19.97,-32.13 -35.53,-38.27 v 0 0 c 0,0 0.08,-0.97 0.08,-2.68 0,-10.87 -3.27,-51.76 -51.5,-64.06 v 0 c 0,0 0.01,-0.05 0.01,-0.14 0,-0.01 0,-0.01 0,-0.01 v -0.01 c 0,-2.49 -1.02,-33.11 -50.33,-43.6 0,0 -7.52,-23.45 -49.88,-23.45 -3.39,0 -7,0.15 -10.85,0.48 0,0 -17.41,-20.37 -46.12,-20.37 -8.33,0 -17.62,1.72 -27.71,6.15 0,0 -16.58,-20.03 -48.08,-20.03 -8.15,0 -17.29,1.34 -27.41,4.71 0,0 -22.72,-9.68 -46.05,-9.68 -8.65,0 -17.37,1.33 -25.06,4.97 0,0 -14.96,-6.4 -32.84,-6.4"
         style="fill:#f4ac12;fill-opacity:1;fill-rule:nonzero;stroke:none"
         id="path5063" />
      <path
         d="m 2948.27,1350.77 c -10.62,0 -22.44,2.62 -32.06,11.47 0,0 -13.62,-8.97 -29.62,-8.97 -10.97,0 -23.05,4.21 -32.64,18.4 0,0 -7.19,-2.87 -16.87,-2.87 -11.07,0 -25.39,3.75 -35.96,19.85 0,0 -37.73,10.38 -46.22,37.74 0,0 -52.14,17.16 -57.05,101.72 18.36,-9.04 38.36,-18.07 60.16,-27.08 14.12,-5.83 29,-11.66 44.67,-17.47 39.26,-14.55 76.6,-25.81 112.12,-34.23 60.5,-14.35 115.68,-20.44 165.69,-20.44 89.98,0 163.37,19.69 221.53,46.38 -5.33,-12.47 -16.47,-26 -39.61,-31.9 0,0 0.95,-28.3 -43.39,-37.74 0,0 -6.49,-20.21 -43.01,-20.21 -2.92,0 -6.03,0.12 -9.35,0.4 0,0 -15.02,-17.56 -39.77,-17.56 -7.19,0 -15.2,1.48 -23.9,5.3 0,0 -14.29,-17.27 -41.46,-17.27 -7.02,0 -14.91,1.16 -23.63,4.06 0,0 -19.59,-8.34 -39.71,-8.34 -7.45,0 -14.98,1.14 -21.61,4.28 0,0 -12.89,-5.52 -28.31,-5.52"
         style="fill:#f7d275;fill-opacity:1;fill-rule:nonzero;stroke:none"
         id="path5065" />
      <path
         d="m 2347.7861,1369.6166 c -29.6228,-2.2859 -135.1093,27.2185 -195.0037,27.8446 -135.52,0 -192.2737,-45.2498 -192.2737,-45.2498 0,0 -9.9287,215.6886 15.7513,170.5486 238.0222,-210.599 -97.8731,-26.1143 -192.43,49.93 -9.32,8.78 -15.95,20.12 -20.42,32.94 61.7,54.78 78.15,108.64 82.71,158.59 0.9,9.81 1.34,19.47 1.58,28.96 1.06,0.37 45.14,15.6 93.99,35.46 0.72,0.29 1.43,0.58 2.15,0.87 56.43,7.51 130.47,12.32 226.58,12.32 96.12,0 170.16,-4.81 226.58,-12.32 0.72,-0.29 1.44,-0.58 2.15,-0.87 48.85,-19.86 92.94,-35.09 94,-35.46 0.24,-9.49 0.68,-19.14 1.58,-28.95 4.56,-49.95 21.01,-103.82 82.71,-158.6 -4.47,-12.82 -11.1,-24.16 -20.42,-32.94 -51.13,-48.16 -195.13,-63.46 -196.41,-115.97 -0.02,-0.66 -0.02,-1.33 -0.02,-2"
         style="fill:#d59814;fill-opacity:1;fill-rule:nonzero;stroke:none"
         id="path5069"
         sodipodi:nodetypes="ccccccccccscccccccc" />
      <path
         d="m 2133.64,3878.34 c 26.71,0 21.81,60.83 21.81,161.44 0,100.61 -40.52,135.71 -84.98,159.11 -44.46,23.4 -156.08,44.21 -297.15,-5.85 -36.27,-12.87 -49.14,-36.27 -49.14,-36.27 0,0 -87.74,-15.21 -116.99,-31.59 0,0 -225.79,8.19 -303,-201.22 0,0 -224.62,-10.53 -305.342,-168.46 0,0 -210.582,-109.97 -294.813,-373.2 0,0 -173.144,-102.95 -205.902,-188.35 -32.758,-85.4 -25.738,-188.35 -25.738,-188.35 0,0 -67.852,-85.41 -72.536,-203.57 -4.675,-118.16 24.571,-177.82 24.571,-177.82 0,0 -92.422,-127.52 -71.364,-314.7 21.059,-187.18 84.231,-233.98 84.231,-233.98 0,0 0,-236.82 159.691,-362.67 111.762,-88.07 264.535,-94.17 264.535,-94.17 0,0 196.987,-312.95 676.647,-135.13 284.9,105.63 307.19,216.05 309.53,309.64 0,0 190.32,65.57 220.74,103 30.42,37.44 99.13,220.28 87.01,392.25 -7.49,106.29 -24.15,188.35 -24.15,188.35 0,0 20.4,90.15 24.15,193.04 4.18,114.65 -27.05,215.58 -39.35,233.97 0,0 38.02,99.45 40.36,202.4 2.34,102.95 -35.68,252.69 -35.68,252.69 0,0 27.65,67.86 34.67,229.3 7.02,161.45 -21.81,290.14 -21.81,290.14"
         style="fill:#fabb1e;fill-opacity:1;fill-rule:nonzero;stroke:none"
         id="path5073" />
      <path
         d="m 1431.06,1450.53 c 34.02,8.28 69.69,19.16 107.11,33.04 14.36,5.32 28.05,10.66 41.11,16 -13.05,-5.35 -26.75,-10.68 -41.11,-16.01 -37.42,-13.87 -73.09,-24.75 -107.11,-33.03 m -131.94,215.14 c -267.28,0 -381.651,173.7 -381.651,173.7 0,0 -146.168,5.62 -253.055,86.26 -152.781,115.17 -152.781,331.91 -152.781,331.91 0,0 -60.5,42.83 -80.633,214.17 -14.512,123.47 27.363,218.55 51.891,262.04 -9.164,-38.92 -10.832,-85.84 1.847,-100.18 21.485,-24.29 72.27,-54.59 96.012,-54.59 5.273,0 9.215,1.49 11.203,4.88 10.942,18.64 -29.539,204.36 -75.488,207.12 -0.207,0.01 -0.418,0.02 -0.621,0.02 -7.571,0 -14.731,-8.26 -20.86,-21.04 -7.648,20.45 -22.507,71.42 -19.175,152.49 4.437,108.17 69.382,186.34 69.382,186.34 0,0 -6.714,94.26 24.672,172.42 0.68,1.65 1.36,3.3 2.231,4.96 59.926,53.31 131.941,96.13 131.941,96.13 84.231,263.23 294.813,373.2 294.813,373.2 80.722,157.93 305.342,168.46 305.342,168.46 71.61,194.23 271.04,201.27 299.58,201.27 2.23,0 3.42,-0.05 3.42,-0.05 29.25,16.38 116.99,31.59 116.99,31.59 0,0 12.87,23.4 49.14,36.27 63.66,22.59 121.33,30.75 169.53,30.75 58.61,0 103.23,-12.06 127.62,-24.9 44.46,-23.4 84.98,-58.5 84.98,-159.11 0,-26.92 0.35,-50.99 0.35,-71.82 0.01,-30.58 -0.74,-54.16 -4.46,-69.43 -37.25,74.71 -116.29,115.47 -190.59,140.17 -48.15,15.29 -98.7,22.67 -149.35,22.67 -107.14,0 -214.62,-33.05 -300.14,-94.12 82.53,36.32 170.57,56.54 258.18,56.54 59.69,0 119.19,-9.38 176.61,-29.46 62.6,-23.1 133.37,-59.26 163.3,-120.72 26.26,-68.7 38.74,-141.88 42.44,-215.28 4.26,-100.31 -7.18,-201.29 -31.01,-299.42 v -0.01 0 0 c 0,0 35.76,-140.81 35.79,-243.22 0,-3.2 -0.03,-6.36 -0.11,-9.47 -2.34,-102.95 -40.36,-202.4 -40.36,-202.4 v 0 0 c 11.54,-17.26 39.75,-107.22 39.73,-212.98 0,-6.94 -0.12,-13.94 -0.38,-20.99 -1.28,-35.27 -4.52,-69.04 -8.23,-98.2 -9.22,128.77 -86.5,199.2 -190.91,199.2 -32.07,0 -66.7,-6.65 -102.7,-20.28 29.11,7.86 56.97,11.8 82.99,11.8 104.96,0 179.63,-64.08 182.75,-192.58 -0.11,-57.28 -1.76,-130.75 -55.7,-163.5 -19.59,-9.99 -41.38,-14.34 -63.57,-14.33 -37.24,0 -75.62,12.25 -106.57,30.67 -75.29,45.54 -126.5,129.1 -159.44,210.67 -37.5,-4.97 -74.11,-8.1 -109.32,-8.1 -121.01,0 -225.27,37.09 -290.66,164.52 -41.65,81.82 -59.5,174.38 -67.56,265.73 -14.69,178.86 61.36,292.97 246.49,303.38 12.21,0.89 24.44,1.32 36.66,1.32 81.91,0 163.46,-19.35 239.22,-50.37 -77.43,41.1 -177.36,71.69 -273.32,71.69 -69.17,0 -136.28,-15.91 -191.35,-55.25 -83.96,-61.91 -104.86,-175.15 -99.87,-273.18 9.56,-130.4 34.01,-266.68 124.22,-368.79 71.47,-81.92 170.95,-107.6 272.01,-107.6 27.99,0 56.11,1.97 83.78,5.26 16.98,-37.05 37.61,-70.4 62.72,-102.76 42.83,-54.8 101.77,-104.06 171.89,-120.24 18.53,-3.81 37.5,-6.19 56.35,-6.19 30.23,0 60.14,6.12 87.34,22.25 27.85,17.63 44.49,42.96 54.09,71.56 5.53,-33.2 13.95,-90.78 18.69,-158.07 0.97,-13.77 1.42,-27.61 1.42,-41.44 -0.04,-94.57 -21.44,-188.64 -44.67,-256.56 26.61,77.86 50.83,190.08 43.21,297.98 -1.08,16.09 -2.47,31.58 -3.95,46.39 -14.9,-115.08 -57.44,-215.75 -79.25,-241.41 -29.02,-34.25 -211.11,-94.26 -211.11,-94.26 -2.27,-85.66 -23.59,-186.73 -296.19,-283.45 -101.56,-36.02 -189.83,-50.03 -265.79,-50.03 m -128.62,522.72 c -5.94,0 -10.48,-1.57 -11.25,-5.13 -2.42,-11.18 -2.8,-31.86 12.69,-39.36 2.16,-1.05 4.42,-1.52 6.69,-1.52 14.08,0 28.95,17.95 26.21,28.83 -2.52,10.04 -21.64,17.18 -34.34,17.18 m -402.387,0 c -5.945,0 -10.48,-1.57 -11.254,-5.13 -2.418,-11.18 -2.796,-31.86 12.696,-39.36 2.16,-1.05 4.414,-1.52 6.691,-1.52 14.074,0 28.942,17.95 26.207,28.83 -2.527,10.04 -21.644,17.18 -34.34,17.18 m 308.597,196.14 c -22.56,0 -23.27,-93.37 -2.01,-119.23 16.48,-20.06 42.33,-45.87 58.85,-45.87 6.33,0 11.29,3.79 13.83,13.15 9.16,33.8 -41.76,137.17 -65.42,150.41 -1.86,1.05 -3.62,1.54 -5.25,1.54 m 428.48,-25.64 c -1.47,0 -2.76,-0.34 -3.84,-1.06 -15.94,-10.73 -5,-64.95 24.85,-79.62 11.02,-5.41 21.54,-7.52 30.38,-7.52 15.14,0 25.39,6.17 24.98,12.55 -0.61,9.45 -55.88,75.65 -76.37,75.65 m 505.66,142.82 c -28.39,0 -57.54,-5.65 -66.32,-14.43 -17.27,-17.27 40.24,-55.01 70.94,-55.02 3.33,0 6.35,0.45 8.92,1.41 26.26,9.85 65.64,31.73 44.85,53.61 -9.66,10.17 -33.74,14.43 -58.39,14.43 m -590.14,364.59 c -4.59,0 -8.54,-0.85 -11.7,-2.68 -42.19,-24.34 -4.93,-137.85 78.76,-165.74 27.67,-9.23 53.88,-12.89 76.46,-12.89 45.71,0 76.51,15.01 74.4,29.3 -2.93,19.74 -160.66,152.01 -217.92,152.01 m -69.75,95.58 c -5.84,0 -11.44,-2.12 -16.37,-7.35 -18.16,-19.26 0.7,-79.33 19.26,-87.27 1.52,-0.66 3.1,-0.96 4.71,-0.96 21.22,-0.01 48.01,53.29 35.3,68.39 -9.96,11.84 -27.24,27.19 -42.9,27.19 m -507.452,103.68 c -2.078,0 -4.336,-0.34 -6.797,-1.08 -28.926,-8.6 -63.746,-89.08 -56.563,-111.15 1.758,-5.4 6.34,-7.7 12.512,-7.7 23.238,0 69.008,32.55 71.485,54.57 2.867,25.49 1.734,65.36 -20.637,65.36 m 1176.972,279.45 c -30.22,0 -53.94,-208.53 -31.1,-249.46 21.48,-38.49 72.27,-86.51 96.01,-86.51 5.28,0 9.22,2.37 11.2,7.74 10.94,29.54 -29.54,323.83 -75.48,328.2 -0.21,0.02 -0.42,0.03 -0.63,0.03 m -659.78,595.71 c -2.9,0 -5.38,-0.69 -7.38,-2.18 -26.6,-19.84 -3.11,-112.36 49.67,-135.1 17.44,-7.52 33.97,-10.5 48.2,-10.51 28.82,0 48.25,12.24 46.91,23.89 -1.84,16.09 -101.29,123.9 -137.4,123.9 m 642.94,253 c -0.43,0 -0.84,-0.02 -1.25,-0.06 -23.45,-2.13 -22.91,-70.55 -3.16,-78.35 9.32,-3.68 22.04,-7.19 33.58,-7.19 12.93,0 24.4,4.4 28,17.91 6.68,25.06 -36.5,67.69 -57.17,67.69 m -157.52,-2429.5 c 0.89,9.81 1.33,19.47 1.56,28.96 0,0 0.01,0 0.02,0 -0.24,-9.49 -0.68,-19.15 -1.58,-28.96 m -1322.081,27.25 c -86.168,125.57 -86.738,281.99 -86.742,284.04 v 0 c 0,0 0,0 0,0.01 v 0 0 c 0,0.01 0,0.01 0,0.01 v 0 0 c 0,0 -39.988,29.63 -66.942,136 26.981,-106.37 66.958,-135.99 66.958,-135.99 0,0 0.007,-157.67 86.726,-284.07 m 1417.651,37.17 c 39.98,16.24 83.16,35.59 108.55,52.41 -9.84,-6.53 -22.36,-13.43 -36.33,-20.38 -22.06,-10.98 -47.74,-22.09 -72.22,-32.03 M 404.215,2702.95 c -2.863,20.57 -4.86,45.16 -4.86,73.74 -0.003,8.13 0.161,16.57 0.504,25.34 2.196,55.38 18.262,103.56 34.719,139.12 -16.441,-35.55 -32.492,-83.73 -34.668,-139.11 -1.59,-39.61 0.641,-72.66 4.305,-99.09 m 30.367,238.22 c 0.004,0.01 0.008,0.01 0.012,0.02 -0.004,-0.01 -0.008,-0.01 -0.012,-0.02"
         style="fill:#fde390;fill-opacity:1;fill-rule:nonzero;stroke:none"
         id="path5075" />
      <path
         d="m 953.676,1525.62 c -63.063,46.82 -92.168,93.06 -92.168,93.06 0,0 -152.778,6.12 -264.504,94.16 -29.406,23.17 -53.391,50.1 -72.965,78.63 19.57,-28.52 43.555,-55.44 72.949,-78.61 111.762,-88.07 264.535,-94.17 264.535,-94.17 0,0 29.094,-46.22 92.133,-93.03 0.008,-0.02 0.016,-0.03 0.02,-0.04"
         style="fill:#fcd46d;fill-opacity:1;fill-rule:nonzero;stroke:none"
         id="path5077" />
      <path
         d="m 1038.83,1475.27 c -33.3,15.28 -61.588,32.85 -85.154,50.35 -0.004,0.01 -0.012,0.02 -0.02,0.04 23.563,-17.5 51.864,-35.08 85.164,-50.37 0,-0.01 0.01,-0.02 0.01,-0.02"
         style="fill:#fab316;fill-opacity:1;fill-rule:nonzero;stroke:none"
         id="path5079" />
      <path
         d="m 1260.36,1428.89 c -89.98,0 -163.37,19.69 -221.53,46.38 0,0 -0.01,0.01 -0.01,0.02 58.16,-26.7 131.56,-46.39 221.56,-46.39 51.39,0 108.21,6.43 170.68,21.63 -62.47,-15.21 -119.31,-21.64 -170.7,-21.64"
         style="fill:#fbc742;fill-opacity:1;fill-rule:nonzero;stroke:none"
         id="path5081" />
      <path
         d="m 1694.96,1556.28 c -0.01,0.01 -0.01,0.01 -0.01,0.02 27.48,16.48 49.98,32.96 68.45,49.36 0,-0.01 0.01,-0.02 0.01,-0.03 -18.47,-16.39 -40.99,-32.87 -68.45,-49.35"
         style="fill:#fbc742;fill-opacity:1;fill-rule:nonzero;stroke:none"
         id="path5083" />
      <path
         d="m 1643,1528.11 v 0.01 c 19.04,9.38 36.3,18.78 51.95,28.18 0,-0.01 0,-0.01 0.01,-0.02 -15.66,-9.39 -32.92,-18.78 -51.96,-28.17"
         style="fill:#fab316;fill-opacity:1;fill-rule:nonzero;stroke:none"
         id="path5085" />
      <path
         d="m 1579.28,1499.57 c 23.18,9.49 44.37,19.02 63.72,28.55 v -0.01 c -19.35,-9.53 -40.53,-19.05 -63.72,-28.54"
         style="fill:#fbc742;fill-opacity:1;fill-rule:nonzero;stroke:none"
         id="path5087" />
      <path
         d="m 2050.24,1881.05 c 8.11,5.37 14.4,10.48 18.2,15.15 11.32,13.95 27.96,48.05 43.76,94.25 -15.79,-46.2 -32.42,-80.31 -43.74,-94.23 -3.8,-4.68 -10.1,-9.8 -18.22,-15.17"
         style="fill:#fabb1e;fill-opacity:1;fill-rule:nonzero;stroke:none"
         id="path5089" />
      <path
         d="m 370.355,2211.53 c -6.933,27.34 -13.007,59.74 -17.328,98.02 -21.019,187.13 71.36,314.64 71.36,314.64 0,0 -12.907,26.38 -20.172,78.76 7.293,-52.37 20.215,-78.74 20.215,-78.74 0,0 -74.442,-102.71 -74.485,-259.08 -0.004,-17.86 0.961,-36.43 3.121,-55.62 4.305,-38.26 10.364,-70.65 17.289,-97.98 m 64.223,729.62 0.004,0.02 c 0,-0.01 -0.004,-0.01 -0.004,-0.02 m 0.016,0.04 c 18.633,40.29 37.758,64.37 37.758,64.37 0,0 -7.008,103.03 25.757,188.41 11.649,30.29 40.961,62.87 74.024,92.28 -0.012,-0.03 -0.028,-0.06 -0.039,-0.08 -33,-29.36 -62.328,-61.89 -73.961,-92.22 -22.938,-59.8 -26.371,-128.2 -26.371,-163.84 0,-15.26 0.633,-24.51 0.633,-24.51 0,0 -19.149,-24.1 -37.801,-64.41"
         style="fill:#fcd46d;fill-opacity:1;fill-rule:nonzero;stroke:none"
         id="path5091" />
      <path
         d="m 1763.41,1605.63 c 0,0.01 -0.01,0.02 -0.01,0.03 61.67,54.77 78.13,108.61 82.72,158.56 -4.56,-49.95 -21.01,-103.81 -82.71,-158.59 m 84.29,187.55 c 0,0.01 0,0.01 0,0.02 0,0 44.55,15.35 93.99,35.44 -48.85,-19.86 -92.93,-35.09 -93.99,-35.46"
         style="fill:#f5ac12;fill-opacity:1;fill-rule:nonzero;stroke:none"
         id="path5093" />
      <path
         d="m 1260.38,1428.9 c -279.392,0 -398.857,189.79 -398.857,189.79 0,0 -152.773,6.1 -264.535,94.17 -29.394,23.17 -53.379,50.09 -72.949,78.61 -86.719,126.4 -86.726,284.07 -86.726,284.07 0,0 -39.977,29.62 -66.958,135.99 -6.925,27.33 -12.984,59.72 -17.289,97.98 -2.16,19.19 -3.125,37.76 -3.121,55.62 0.043,156.37 74.485,259.08 74.485,259.08 v 0 0 c 0,0 -12.922,26.37 -20.215,78.74 -3.664,26.43 -5.895,59.48 -4.305,99.09 2.176,55.38 18.227,103.56 34.668,139.11 0,0.01 0.004,0.01 0.004,0.02 0.004,0.01 0.008,0.01 0.012,0.02 18.652,40.31 37.801,64.41 37.801,64.41 v 0 0 c 0,0 -0.633,9.25 -0.633,24.51 0,35.64 3.433,104.04 26.371,163.84 11.633,30.33 40.961,62.86 73.961,92.22 -0.871,-1.66 -1.551,-3.31 -2.231,-4.96 -31.386,-78.16 -24.672,-172.42 -24.672,-172.42 0,0 -64.945,-78.17 -69.382,-186.34 -3.332,-81.07 11.527,-132.04 19.175,-152.49 -4.754,-9.92 -8.882,-22.58 -12.093,-36.21 -24.528,-43.49 -66.403,-138.57 -51.891,-262.04 20.133,-171.34 80.633,-214.17 80.633,-214.17 0,0 0,-216.74 152.781,-331.91 106.887,-80.64 253.055,-86.26 253.055,-86.26 0,0 114.371,-173.7 381.651,-173.7 75.96,0 164.23,14.01 265.79,50.03 272.6,96.72 293.92,197.79 296.19,283.45 0,0 182.09,60.01 211.11,94.26 21.81,25.66 64.35,126.33 79.25,241.41 1.48,-14.81 2.87,-30.3 3.95,-46.39 7.62,-107.9 -16.6,-220.12 -43.21,-297.98 -15.8,-46.2 -32.44,-80.3 -43.76,-94.25 -3.8,-4.67 -10.09,-9.78 -18.2,-15.15 -25.39,-16.82 -68.57,-36.17 -108.55,-52.41 -49.44,-20.09 -93.99,-35.44 -93.99,-35.44 0,-0.01 0,-0.01 0,-0.02 -0.01,0 -0.02,0 -0.02,0 -0.23,-9.49 -0.67,-19.15 -1.56,-28.96 -4.59,-49.95 -21.05,-103.79 -82.72,-158.56 -39.68,-35.25 -98.09,-70.87 -184.12,-106.09 -13.06,-5.34 -26.75,-10.68 -41.11,-16 -37.42,-13.88 -73.09,-24.76 -107.11,-33.04 -62.47,-15.2 -119.29,-21.63 -170.68,-21.63"
         style="fill:#fcce4e;fill-opacity:1;fill-rule:nonzero;stroke:none"
         id="path5095" />
      <path
         d="m 1511.26,3967.25 c 125.94,89.94 299.47,119.1 449.49,71.45 76.37,-25.39 157.73,-67.74 193.6,-146.48 27.11,-74.34 38.4,-154.98 35.87,-233.54 -3.13,-103.3 -25.5,-206.54 -69.44,-299.78 23.83,98.14 35.27,199.12 31.01,299.43 -3.7,73.4 -16.18,146.58 -42.44,215.28 -29.93,61.46 -100.7,97.62 -163.3,120.72 -141.71,49.55 -296.03,33.99 -434.79,-27.08"
         style="fill:#fabb1e;fill-opacity:1;fill-rule:nonzero;stroke:none"
         id="path5097" />
      <path
         d="m 1724.18,4156.77 c 50.97,5.89 97.67,-28.43 119.4,-72.3 7.15,-14.73 11.31,-31.35 10.03,-49.33 -16.62,7.82 -28.52,16.68 -40.43,25.22 -35.85,28.04 -64.76,56.26 -89,96.41"
         style="fill:#fabb1e;fill-opacity:1;fill-rule:nonzero;stroke:none"
         id="path5099" />
      <path
         d="m 1448.09,3572.99 c 146.12,50 314.1,66.74 457.97,-0.83 97.28,-45.64 171.48,-129.7 222.59,-222.33 35.97,-73.68 42.07,-153.91 36.62,-233.06 -5.98,-76.8 -22.92,-153.17 -50.9,-224.62 17.98,98.65 27.18,200.4 15.3,299.45 -7.24,54.73 -21.64,107.13 -50.13,152.31 -23.3,34.24 -51.16,70.47 -79.65,100.09 -141.76,151.65 -359.34,154.05 -551.8,128.99"
         style="fill:#fabb1e;fill-opacity:1;fill-rule:nonzero;stroke:none"
         id="path5101" />
      <path
         d="m 1304.19,3923.96 c 10.05,-45.32 20.31,-93.93 49.13,-129.43 59.1,-70.44 166.42,-57.34 251.03,-52.42 47.69,3.94 95.89,10.01 145.57,13.39 -44.11,-23.15 -90.86,-39.9 -139.39,-51.7 -172.62,-44.08 -347.4,9.53 -306.34,220.16"
         style="fill:#fabb1e;fill-opacity:1;fill-rule:nonzero;stroke:none"
         id="path5103" />
      <path
         d="m 1128.71,3396.25 c -30.97,77.33 1.14,169.62 55.71,229.1 40.94,45.36 96.25,76.76 154.05,94.93 70.51,15.73 72.23,18.43 10.35,-21.93 -30.36,-22.51 -61.4,-42.81 -89,-68.28 -70.05,-60.25 -119.39,-139.77 -131.11,-233.82"
         style="fill:#fabb1e;fill-opacity:1;fill-rule:nonzero;stroke:none"
         id="path5105" />
      <path
         d="m 1043.27,3549.18 c -48.723,94.03 30.78,219.27 134.24,224.82 -25.03,-31.42 -52.27,-57.59 -73.5,-91.16 -28.28,-41.34 -44.4,-84.42 -60.74,-133.66"
         style="fill:#fabb1e;fill-opacity:1;fill-rule:nonzero;stroke:none"
         id="path5107" />
      <path
         d="m 822.238,3462.15 c 55.035,69.99 170.024,143.2 260.982,97.14 45.6,-25.19 82.44,-99.47 34.91,-138.07 -7.72,-6.45 -16.18,-11.4 -25.3,-14.33 11.58,14.69 20.18,31.29 20.28,45.62 0.19,15.22 -10.01,26.8 -18.09,38.5 -58.05,78.64 -198.278,-3.36 -272.782,-28.86"
         style="fill:#fabb1e;fill-opacity:1;fill-rule:nonzero;stroke:none"
         id="path5109" />
      <path
         d="m 1834.15,3859.84 c 180.09,-39.88 275.73,-241.05 102.89,-360.5 17.56,34.86 33.02,68.41 40.47,101.79 25.07,110.21 -68.02,190.78 -143.36,258.71"
         style="fill:#fabb1e;fill-opacity:1;fill-rule:nonzero;stroke:none"
         id="path5111" />
      <path
         d="m 472.395,3005.6 c 1.921,45.52 37.472,81.22 79.46,92.88 14.036,3.66 29.555,4.26 45.133,-1.05 -8.968,-14.2 -17.691,-23.57 -26.363,-32.91 -28.355,-28.26 -57.828,-48.57 -98.23,-58.92"
         style="fill:#fabb1e;fill-opacity:1;fill-rule:nonzero;stroke:none"
         id="path5113" />
      <path
         d="m 683.695,3369.58 c -34.558,-63.72 -39.918,-131.72 -31.73,-200.81 8.715,-70.03 72.652,-101.92 141.066,-107.17 -79.773,-37.71 -176.968,7.7 -189.699,99.73 -10.789,75.88 10.133,167.63 80.363,208.25"
         style="fill:#fabb1e;fill-opacity:1;fill-rule:nonzero;stroke:none"
         id="path5115" />
      <path
         d="m 932.723,3167.63 c -118.606,-56.96 -220.203,-175.1 -210.344,-312.38 10.105,-111.79 54.824,-286.33 194.316,-279.87 117.225,7 218.765,98.71 303.975,172.39 l -36.44,-91.27 c -25.31,-71.2 -10.54,-157.86 38.82,-215.09 53.8,-61.98 142.85,-63.19 221.34,-66.41 l 14.25,-0.6 c 8.52,-71.82 63.05,-129.78 124.21,-164.97 61.34,-34.88 131.09,-51.36 200.97,-59.61 -71.72,0.1 -144.63,10.49 -210.27,41.86 -49.94,23.3 -95.39,61.09 -123.69,109.51 -10.16,17.61 -17.62,33.55 -22.47,54.23 l 16.33,-14.18 c -63.88,-0.11 -135.76,-2.47 -196.43,27.99 -96.25,48.52 -138.83,168.54 -117.7,270.64 2.59,12.45 5.02,22.52 9.79,35.11 l 38.55,-27.36 c -37.09,-31.79 -75.46,-57.95 -118.75,-79.87 -244.586,-123.81 -362.61,56.73 -371.043,286.86 -1.77,147.56 110.652,267.89 244.586,313.02"
         style="fill:#fabb1e;fill-opacity:1;fill-rule:nonzero;stroke:none"
         id="path5117" />
      <path
         d="m 465.41,2855.85 c -41.597,-272.47 4.715,-503.95 315.945,-548.08 82.415,-9.29 166.747,0.75 247.045,24.24 -55.466,-33.01 -119.58,-52.03 -183.873,-59.99 -131.515,-15.61 -278.515,29.52 -360.519,139.91 -90.024,129.44 -75.211,304.39 -18.598,443.92"
         style="fill:#fabb1e;fill-opacity:1;fill-rule:nonzero;stroke:none"
         id="path5119" />
      <path
         d="m 663.82,2219.43 c 35.813,-115.86 138.739,-192.83 251.532,-226.34 53.746,-17.32 111.988,-17.29 170.068,-6.75 58.11,10.68 115.78,30.16 172.72,55 -46.05,-42.26 -102.35,-73.44 -163.49,-92.69 -61.88,-19.63 -131.384,-22.67 -194.005,-2.65 -120.344,34.82 -239.305,139.72 -236.825,273.43"
         style="fill:#fabb1e;fill-opacity:1;fill-rule:nonzero;stroke:none"
         id="path5121" />
      <path
         d="m 1126.67,1902.39 c 212.4,-180.2 516.81,-155.43 765.43,-71.15 73.85,23.08 152.99,48.75 198.08,115.45 45.13,67.15 53.54,150.46 60.25,230.62 7.77,-81.92 7.38,-171.82 -34.66,-246.6 -42.64,-77.84 -130.05,-114.86 -209.5,-142.41 -104.16,-37.43 -214.97,-66.42 -327.01,-68.44 -165.43,-4.29 -346.84,48.71 -452.59,182.53"
         style="fill:#fabb1e;fill-opacity:1;fill-rule:nonzero;stroke:none"
         id="path5123" />
      <path
         d="m 2119.93,2449.04 c 150.57,-252.29 -78.15,-577.3 -369.52,-489.64 -82.85,24.41 -153.32,78.04 -207.56,143.04 66.01,-47.67 137.45,-89.81 216.96,-105.69 264.83,-53.4 440.25,209.75 360.12,452.29"
         style="fill:#fabb1e;fill-opacity:1;fill-rule:nonzero;stroke:none"
         id="path5125" />
      <path
         d="m 899.598,1731.29 c -82.258,-8 -168.11,-1.53 -245.114,30.49 -160.382,60.18 -272.187,240.84 -242.949,412.13 12.992,82.53 44.391,160.6 88.938,230.36 -27.93,-87.34 -51.215,-174.38 -51.25,-263.45 -0.477,-66.77 21.875,-132.6 55.261,-189.83 52.395,-91.92 146.36,-157.15 247.625,-187.52 l 28.504,-8.89 58.754,-13.33 c 19.922,-3.02 39.981,-6.17 60.231,-9.96"
         style="fill:#fabb1e;fill-opacity:1;fill-rule:nonzero;stroke:none"
         id="path5127" />
      <path
         d="m 1058.51,1677.77 c 24.37,-37.77 104.76,-35.81 146.02,-37.86 103.83,0.15 209.51,13.93 306.8,50.32 48.1,18.73 93.96,43.95 130.88,84.8 -9.22,-26.1 -26.28,-49.41 -46.1,-69.58 -102.11,-96.47 -259.65,-121.24 -394.66,-104.08 -43.72,7.12 -132.49,25.72 -142.94,76.4"
         style="fill:#fabb1e;fill-opacity:1;fill-rule:nonzero;stroke:none"
         id="path5129" />
      <path
         d="m 1591.98,3179.91 c 40.67,-138.3 114.47,-171.53 251.66,-171.77 82.57,-0.44 173.24,-13.87 238.06,-72.18 96.16,-87.48 93.15,-233.48 65.4,-350.36 -0.94,109.73 -4.17,241.59 -94.59,316.34 -57.97,46.69 -136.02,55.56 -209.69,57.39 -40.94,1.4 -82.98,6.02 -123.51,20.91 -87.84,30.07 -129.23,111.73 -127.33,199.67"
         style="fill:#fabb1e;fill-opacity:1;fill-rule:nonzero;stroke:none"
         id="path5131" />
      <path
         d="m 825.703,3279.03 c 51.125,72.79 120.363,139.13 212.327,157.01 48.68,9.81 107.14,-4.65 137.51,-47.96 25.73,-39.97 38.9,-81.96 54.7,-125.9 16.27,-55.8 52.16,-169.69 -12.84,-209.03 -21.22,-13.8 -41.41,-21.39 -61.01,-30.55 -79.46,-33.44 -148.09,-84.79 -182.109,-166.75 14.125,90.62 86.329,160.16 164.949,200.58 18.96,10.75 38.66,21.01 53.34,31.84 5.11,4.09 9.22,7.36 11.52,12.54 2.7,7.82 3.67,16.74 3.68,26.89 -0.58,39.36 -12.33,81 -24.46,119.32 -12.98,37.62 -26.43,79.73 -45.45,114.2 -20.16,30.57 -58.57,40.71 -94.82,37.33 -82.72,-8.77 -155.645,-64.33 -217.337,-119.52"
         style="fill:#fabb1e;fill-opacity:1;fill-rule:nonzero;stroke:none"
         id="path5133" />
      <path
         d="m 1317.06,2474.46 c -28.31,68.46 45.87,198.33 126.55,188.41 5.03,-0.84 10.85,-3.32 15.23,-5.58 36.55,-18.01 72.83,-32.26 108.99,-54.51 -31.23,-3.64 -61.63,-1.54 -91.91,3.89 -12.44,2.36 -25.01,5.35 -37.1,9.62 -1.8,0.58 -1.88,0.85 -2.95,0.41 -2.47,0.23 -13.7,-3.82 -23.01,-11 -41.08,-31.66 -79.25,-79.97 -95.8,-131.24"
         style="fill:#fabb1e;fill-opacity:1;fill-rule:nonzero;stroke:none"
         id="path5135" />
      <path
         d="m 1853.61,2750.56 c 153.32,58.07 281.73,-10.69 293.63,-179.26 4.46,-69.34 1.52,-154.5 -64.57,-196.34 -44.16,-26.19 -95.45,-25.98 -143.69,-16.06 -70.12,16.18 -129.06,65.44 -171.89,120.24 -28.98,37.35 -51.99,76.02 -70.32,120.17 l 24.66,-15.21 c -132.27,-18.35 -277.51,-9.15 -372.85,100.14 -90.21,102.11 -114.66,238.39 -124.22,368.79 -4.99,98.03 15.91,211.27 99.87,273.18 131.47,93.91 331.44,54.28 464.67,-16.44 -87.07,35.65 -181.77,55.88 -275.88,49.05 -185.13,-10.41 -261.18,-124.52 -246.49,-303.38 8.06,-91.35 25.91,-183.91 67.56,-265.73 84.41,-164.5 233.58,-178.46 399.98,-156.42 32.94,-81.57 84.15,-165.13 159.44,-210.67 49.4,-29.39 117.66,-43.09 170.14,-16.34 53.94,32.75 55.59,106.22 55.7,163.5 -3.89,160.34 -119.18,220.37 -265.74,180.78"
         style="fill:#fabb1e;fill-opacity:1;fill-rule:nonzero;stroke:none"
         id="path5137" />
      <path
         d="m 1152.91,2536.67 c -113.51,-80.5 -159.664,-212.9 -72.78,-330.59 53.22,-75.37 130.59,-130.28 220.04,-157.69 72.83,-23.53 149.84,-29.17 226.88,-29.64 -76.75,-20.38 -158.3,-24.71 -236.83,-7.87 -152.96,29.26 -323.829,181.3 -292.755,349.34 14.675,81.34 80.255,148.45 155.445,176.45"
         style="fill:#fabb1e;fill-opacity:1;fill-rule:nonzero;stroke:none"
         id="path5139" />
      <path
         d="m 2070.47,4198.89 c 109.58,-41.17 129.69,-235.82 63.18,-320.55 -0.78,57.67 -6.25,110.52 -14.12,166.07 -8.86,55.09 -18.24,105.23 -49.06,154.48"
         style="fill:#fabb1e;fill-opacity:1;fill-rule:nonzero;stroke:none"
         id="path5141" />
      <path
         d="m 2085.39,3009.04 c -23.74,0 -74.53,48.02 -96.01,86.51 -22.84,40.93 0.88,249.46 31.1,249.46 0.21,0 0.42,-0.01 0.63,-0.03 45.94,-4.37 86.42,-298.66 75.48,-328.2 -1.98,-5.37 -5.92,-7.74 -11.2,-7.74"
         style="fill:#fef1c3;fill-opacity:1;fill-rule:nonzero;stroke:none"
         id="path5143" />
      <path
         d="m 580.75,2578.98 c -23.742,0 -74.527,30.3 -96.012,54.59 -12.679,14.34 -11.011,61.26 -1.847,100.18 9.507,16.85 16.406,25.95 16.406,25.95 0,0 -1.754,3.43 -4.313,10.26 6.129,12.78 13.289,21.04 20.86,21.04 0.203,0 0.414,-0.01 0.621,-0.02 45.949,-2.76 86.43,-188.48 75.488,-207.12 -1.988,-3.39 -5.93,-4.88 -11.203,-4.88"
         style="fill:#fef1c3;fill-opacity:1;fill-rule:nonzero;stroke:none"
         id="path5145" />
      <path
         d="m 482.891,2733.75 c 3.211,13.63 7.339,26.29 12.093,36.21 2.559,-6.83 4.313,-10.26 4.313,-10.26 0,0 -6.899,-9.1 -16.406,-25.95"
         style="fill:#fde79d;fill-opacity:1;fill-rule:nonzero;stroke:none"
         id="path5147" />
      <path
         d="m 1564.23,2684.99 c -22.58,0 -48.79,3.66 -76.46,12.89 -83.69,27.89 -120.95,141.4 -78.76,165.74 3.16,1.83 7.11,2.68 11.7,2.68 57.26,0 214.99,-132.27 217.92,-152.01 2.11,-14.29 -28.69,-29.3 -74.4,-29.3"
         style="fill:#fef1c3;fill-opacity:1;fill-rule:nonzero;stroke:none"
         id="path5149" />
      <path
         d="m 1451.19,3792.93 c -14.23,0.01 -30.76,2.99 -48.2,10.51 -52.78,22.74 -76.27,115.26 -49.67,135.1 2,1.49 4.48,2.18 7.38,2.18 36.11,0 135.56,-107.81 137.4,-123.9 1.34,-11.65 -18.09,-23.89 -46.91,-23.89"
         style="fill:#fef1c3;fill-opacity:1;fill-rule:nonzero;stroke:none"
         id="path5151" />
      <path
         d="m 1556.58,2270.69 c -8.84,0 -19.36,2.11 -30.38,7.52 -29.85,14.67 -40.79,68.89 -24.85,79.62 1.08,0.72 2.37,1.06 3.84,1.06 20.49,0 75.76,-66.2 76.37,-75.65 0.41,-6.38 -9.84,-12.55 -24.98,-12.55"
         style="fill:#fef1c3;fill-opacity:1;fill-rule:nonzero;stroke:none"
         id="path5153" />
      <path
         d="m 2015.47,2432.26 c -30.7,0.01 -88.21,37.75 -70.94,55.02 8.78,8.78 37.93,14.43 66.32,14.43 24.65,0 48.73,-4.26 58.39,-14.43 20.79,-21.88 -18.59,-43.76 -44.85,-53.61 -2.57,-0.96 -5.59,-1.41 -8.92,-1.41"
         style="fill:#fef1c3;fill-opacity:1;fill-rule:nonzero;stroke:none"
         id="path5155" />
      <path
         d="m 1133.55,2219.43 c -16.52,0 -42.37,25.81 -58.85,45.87 -21.26,25.86 -20.55,119.23 2.01,119.23 1.63,0 3.39,-0.49 5.25,-1.54 23.66,-13.24 74.58,-116.61 65.42,-150.41 -2.54,-9.36 -7.5,-13.15 -13.83,-13.15"
         style="fill:#fef1c3;fill-opacity:1;fill-rule:nonzero;stroke:none"
         id="path5157" />
      <path
         d="m 792.66,2945.63 c -6.172,0 -10.754,2.3 -12.512,7.7 -7.183,22.07 27.637,102.55 56.563,111.15 2.461,0.74 4.719,1.08 6.797,1.08 22.371,0 23.504,-39.87 20.637,-65.36 -2.477,-22.02 -48.247,-54.57 -71.485,-54.57"
         style="fill:#fef1c3;fill-opacity:1;fill-rule:nonzero;stroke:none"
         id="path5159" />
      <path
         d="m 1358.56,2866.3 c -1.61,0 -3.19,0.3 -4.71,0.96 -18.56,7.94 -37.42,68.01 -19.26,87.27 4.93,5.23 10.53,7.35 16.37,7.35 15.66,0 32.94,-15.35 42.9,-27.19 12.71,-15.1 -14.08,-68.4 -35.3,-68.39"
         style="fill:#fef1c3;fill-opacity:1;fill-rule:nonzero;stroke:none"
         id="path5161" />
      <path
         d="m 1178.63,2142.38 c -2.27,0 -4.53,0.47 -6.69,1.52 -15.49,7.5 -15.11,28.18 -12.69,39.36 0.77,3.56 5.31,5.13 11.25,5.13 12.7,0 31.82,-7.14 34.34,-17.18 2.74,-10.88 -12.13,-28.83 -26.21,-28.83"
         style="fill:#fef1c3;fill-opacity:1;fill-rule:nonzero;stroke:none"
         id="path5163" />
      <path
         d="m 776.246,2142.38 c -2.277,0 -4.531,0.47 -6.691,1.52 -15.492,7.5 -15.114,28.18 -12.696,39.36 0.774,3.56 5.309,5.13 11.254,5.13 12.696,0 31.813,-7.14 34.34,-17.18 2.735,-10.88 -12.133,-28.83 -26.207,-28.83"
         style="fill:#fef1c3;fill-opacity:1;fill-rule:nonzero;stroke:none"
         id="path5165" />
      <path
         d="m 2032.81,4108.12 c -11.54,0 -24.26,3.51 -33.58,7.19 -19.75,7.8 -20.29,76.22 3.16,78.35 0.41,0.04 0.82,0.06 1.25,0.06 20.67,0 63.85,-42.63 57.17,-67.69 -3.6,-13.51 -15.07,-17.91 -28,-17.91"
         style="fill:#fef1c3;fill-opacity:1;fill-rule:nonzero;stroke:none"
         id="path5167" />
      <path
         d="m 2207.2,3878.34 c -26.7,0 -21.8,60.83 -21.8,161.44 0,100.61 40.52,135.71 84.98,159.11 44.45,23.4 156.08,44.21 297.15,-5.85 36.27,-12.87 49.14,-36.27 49.14,-36.27 0,0 87.74,-15.21 116.99,-31.59 0,0 225.79,8.19 303,-201.22 0,0 224.62,-10.53 305.34,-168.46 0,0 210.58,-109.97 294.82,-373.2 0,0 173.14,-102.95 205.9,-188.35 32.75,-85.4 25.73,-188.35 25.73,-188.35 0,0 67.86,-85.41 72.54,-203.57 4.68,-118.16 -24.57,-177.82 -24.57,-177.82 0,0 92.42,-127.52 71.36,-314.7 -21.05,-187.18 -84.23,-233.98 -84.23,-233.98 0,0 0,-236.82 -159.69,-362.67 -111.76,-88.07 -264.53,-94.17 -264.53,-94.17 0,0 -196.99,-312.95 -676.65,-135.13 -284.9,105.63 -307.19,216.05 -309.53,309.64 0,0 -190.32,65.57 -220.74,103 -30.42,37.44 -99.13,220.28 -87.01,392.25 7.49,106.29 24.14,188.35 24.14,188.35 0,0 -20.4,90.15 -24.14,193.04 -4.18,114.65 27.05,215.58 39.35,233.97 0,0 -38.03,99.45 -40.37,202.4 -2.34,102.95 35.69,252.69 35.69,252.69 0,0 -27.65,67.86 -34.67,229.3 -7.02,161.45 21.8,290.14 21.8,290.14"
         style="fill:#fabb1e;fill-opacity:1;fill-rule:nonzero;stroke:none"
         id="path5169" />
      <path
         d="m 2914.8,1449.33 c -35.52,8.42 -72.86,19.68 -112.12,34.23 -15.67,5.81 -30.55,11.64 -44.67,17.47 14.12,-5.83 29,-11.65 44.67,-17.46 39.26,-14.56 76.6,-25.82 112.12,-34.24 m 126.93,216.34 c -75.97,-0.01 -164.23,14.01 -265.8,50.03 -272.59,96.72 -293.91,197.79 -296.18,283.45 0,0 -182.1,60.01 -211.11,94.26 -21.81,25.66 -64.35,126.33 -79.25,241.41 -1.49,-14.81 -2.87,-30.3 -3.95,-46.39 -7.52,-106.52 15.98,-217.25 42.19,-294.97 -22.83,67.67 -43.62,160.37 -43.65,253.55 0,13.83 0.45,27.67 1.42,41.44 4.74,67.32 13.16,124.91 18.7,158.1 9.59,-28.6 26.23,-53.94 54.08,-71.59 27.23,-16.13 57.14,-22.25 87.38,-22.25 18.83,0 37.79,2.37 56.31,6.19 70.11,16.18 129.06,65.44 171.89,120.24 25.11,32.36 45.74,65.71 62.72,102.77 27.71,-3.3 55.84,-5.27 83.85,-5.27 101.02,0 200.4,25.67 271.94,107.59 90.21,102.12 114.67,238.41 124.22,368.8 4.97,98.04 -15.92,211.24 -99.87,273.19 -55.12,39.33 -122.22,55.24 -191.4,55.24 -95.91,0 -195.82,-30.58 -273.27,-71.69 75.77,31.01 157.3,50.37 239.21,50.37 12.22,0 24.45,-0.43 36.67,-1.32 185.79,-10.69 260.9,-124.43 246.5,-303.38 -8.07,-91.35 -25.93,-183.9 -67.57,-265.73 -65.3,-127.39 -169.69,-164.53 -290.76,-164.53 -35.18,0 -71.78,3.14 -109.22,8.11 -32.95,-81.58 -84.15,-165.12 -159.44,-210.67 -30.97,-18.4 -69.34,-30.67 -106.61,-30.67 -22.17,0 -43.95,4.35 -63.53,14.33 -53.94,32.72 -55.64,106.22 -55.7,163.5 2.98,128.36 77.85,192.59 182.85,192.59 25.99,0 53.84,-3.94 82.89,-11.81 -36.08,13.62 -70.73,20.26 -102.82,20.26 -104.34,0 -181.42,-70.27 -190.79,-199.18 -3.71,29.16 -6.95,62.93 -8.23,98.2 -0.26,7.05 -0.38,14.05 -0.38,20.99 -0.03,105.76 28.19,195.72 39.73,212.98 v 0 0 c 0,0 -38.03,99.45 -40.37,202.4 -0.07,3.11 -0.1,6.27 -0.1,9.47 0.03,102.41 35.79,243.22 35.79,243.22 v 0 0 c 0,0 -27.65,67.86 -34.67,229.3 -0.03,0.72 -0.06,1.45 -0.09,2.17 -0.7,16.75 -1.01,33.13 -1.01,49.06 -0.01,136.61 22.9,238.91 22.9,238.91 v 0 0 c -19.53,0 -22.15,32.54 -22.15,89.4 0,20.87 0.35,45.02 0.35,72.04 0,100.61 40.52,135.71 84.98,159.11 24.39,12.84 69.01,24.9 127.62,24.9 48.2,0 105.87,-8.16 169.53,-30.75 36.27,-12.87 49.14,-36.27 49.14,-36.27 0,0 87.74,-15.21 116.99,-31.59 0,0 1.19,0.05 3.42,0.05 28.54,0 227.97,-7.04 299.58,-201.27 0,0 224.62,-10.53 305.34,-168.46 0,0 210.58,-109.97 294.82,-373.2 0,0 72.01,-42.82 131.94,-96.13 0.87,-1.66 1.55,-3.31 2.23,-4.96 31.38,-78.16 24.67,-172.42 24.67,-172.42 0,0 64.94,-78.17 69.38,-186.34 3.33,-81.07 -11.53,-132.04 -19.18,-152.49 -6.12,12.78 -13.28,21.04 -20.85,21.04 -0.21,0 -0.42,-0.01 -0.63,-0.02 -45.95,-2.76 -86.42,-188.48 -75.48,-207.12 1.98,-3.39 5.92,-4.88 11.2,-4.88 23.74,0 74.53,30.3 96.01,54.59 12.68,14.34 11.01,61.26 1.85,100.18 24.53,-43.49 66.4,-138.57 51.89,-262.04 -20.13,-171.34 -80.63,-214.17 -80.63,-214.17 0,0 0,-216.74 -152.78,-331.91 -106.89,-80.64 -253.06,-86.26 -253.06,-86.26 0,0 -114.37,-173.67 -381.65,-173.7 m 531.01,522.72 c -12.7,0 -31.82,-7.14 -34.34,-17.18 -2.74,-10.88 12.13,-28.83 26.2,-28.83 2.28,0 4.54,0.47 6.69,1.52 15.5,7.5 15.12,28.18 12.7,39.36 -0.77,3.56 -5.31,5.13 -11.25,5.13 m -402.39,0 c -12.7,0 -31.82,-7.14 -34.34,-17.18 -2.74,-10.88 12.13,-28.83 26.21,-28.83 2.27,0 4.53,0.47 6.68,1.52 15.5,7.5 15.12,28.18 12.7,39.36 -0.77,3.56 -5.31,5.13 -11.25,5.13 m 93.79,196.14 c -1.63,0 -3.39,-0.49 -5.25,-1.54 -23.66,-13.24 -74.58,-116.61 -65.42,-150.41 2.54,-9.36 7.5,-13.15 13.83,-13.15 16.52,0 42.37,25.81 58.85,45.87 21.26,25.86 20.55,119.23 -2.01,119.23 m -428.48,-25.64 c -20.49,0 -75.76,-66.2 -76.37,-75.65 -0.42,-6.38 9.84,-12.55 24.97,-12.55 8.85,0 19.37,2.11 30.39,7.52 29.85,14.67 40.79,68.89 24.85,79.62 -1.08,0.72 -2.37,1.06 -3.84,1.06 M 2330,2501.71 c -24.65,0 -48.73,-4.26 -58.39,-14.43 -20.79,-21.88 18.59,-43.76 44.85,-53.61 2.57,-0.96 5.59,-1.41 8.92,-1.41 30.7,0 88.21,37.75 70.94,55.02 -8.78,8.78 -37.93,14.43 -66.32,14.43 m 590.14,364.59 c -57.26,0 -214.99,-132.27 -217.92,-152.01 -2.11,-14.29 28.69,-29.3 74.4,-29.3 22.58,0 48.79,3.66 76.45,12.89 83.7,27.89 120.96,141.4 78.77,165.74 -3.17,1.83 -7.11,2.68 -11.7,2.68 m 69.75,95.58 c -15.66,0 -32.94,-15.35 -42.9,-27.19 -12.71,-15.1 14.08,-68.39 35.3,-68.39 1.61,0 3.19,0.3 4.71,0.96 18.56,7.94 37.42,68.01 19.26,87.27 -4.93,5.23 -10.53,7.35 -16.37,7.35 m 507.45,103.68 c -22.37,0 -23.5,-39.87 -20.64,-65.36 2.48,-22.02 48.25,-54.57 71.49,-54.57 6.17,0 10.75,2.3 12.51,7.7 7.18,22.07 -27.63,102.55 -56.56,111.15 -2.46,0.74 -4.72,1.08 -6.8,1.08 m -1176.97,279.45 c -0.21,0 -0.42,-0.01 -0.63,-0.03 -45.95,-4.37 -86.42,-298.66 -75.48,-328.2 1.98,-5.37 5.92,-7.74 11.2,-7.74 23.74,0 74.53,48.02 96.01,86.51 22.84,40.93 -0.88,249.46 -31.1,249.46 m 659.78,595.71 c -36.11,0 -135.56,-107.81 -137.4,-123.9 -1.34,-11.65 18.09,-23.89 46.91,-23.89 14.23,0 30.76,2.99 48.2,10.51 52.78,22.74 76.27,115.26 49.67,135.1 -2,1.49 -4.48,2.18 -7.38,2.18 m -642.94,253 c -20.67,0 -63.86,-42.63 -57.17,-67.69 3.6,-13.51 15.06,-17.91 27.99,-17.91 11.55,0 24.27,3.51 33.58,7.19 19.75,7.8 20.3,76.22 -3.15,78.35 -0.41,0.04 -0.83,0.06 -1.25,0.06 m 157.52,-2429.49 c -0.9,9.81 -1.34,19.46 -1.58,28.95 0.01,0 0.02,0 0.02,0 0.23,-9.49 0.67,-19.14 1.56,-28.95 m 1319.35,23.31 c 89.45,127.04 89.45,288 89.45,288 0,0 39.06,28.93 66.02,132.33 -26.93,-103.41 -66,-132.34 -66,-132.34 0,0 0,-160.96 -89.47,-287.99 m -1414.93,41.1 c -39.98,16.24 -83.17,35.59 -108.56,52.42 25.39,-16.82 68.57,-36.17 108.56,-52.42 m 1537.4,873.74 c 3.72,26.52 5.99,59.76 4.39,99.66 -2.21,56.22 -18.72,105.01 -35.42,140.72 16.72,-35.71 33.24,-84.51 35.47,-140.73 0.35,-8.77 0.51,-17.21 0.51,-25.34 -0.01,-28.84 -2.04,-53.62 -4.95,-74.31"
         style="fill:#fde390;fill-opacity:1;fill-rule:nonzero;stroke:none"
         id="path5171" />
      <path
         d="m 3387.17,1525.62 c 0.01,0.01 0.01,0.02 0.02,0.03 63.04,46.82 92.14,93.04 92.14,93.04 0,0 152.77,6.1 264.53,94.17 28.04,22.1 51.16,47.62 70.22,74.68 -19.07,-27.07 -42.18,-52.6 -70.24,-74.7 -111.72,-88.04 -264.5,-94.16 -264.5,-94.16 0,0 -29.11,-46.24 -92.17,-93.06"
         style="fill:#fcd46d;fill-opacity:1;fill-rule:nonzero;stroke:none"
         id="path5173" />
      <path
         d="m 3302.02,1475.27 c 0,0 0,0.01 0.01,0.02 33.3,15.29 61.6,32.87 85.16,50.36 -0.01,-0.01 -0.01,-0.02 -0.02,-0.03 -23.56,-17.5 -51.85,-35.07 -85.15,-50.35"
         style="fill:#fab316;fill-opacity:1;fill-rule:nonzero;stroke:none"
         id="path5175" />
      <path
         d="m 3080.49,1428.89 c -50.01,0 -105.19,6.09 -165.69,20.44 60.49,-14.34 115.66,-20.43 165.67,-20.43 90,0 163.4,19.69 221.56,46.39 -0.01,-0.01 -0.01,-0.02 -0.01,-0.02 -58.16,-26.69 -131.55,-46.38 -221.53,-46.38"
         style="fill:#fbc742;fill-opacity:1;fill-rule:nonzero;stroke:none"
         id="path5177" />
      <path
         d="m 2645.89,1556.28 c -27.46,16.48 -49.98,32.96 -68.45,49.35 0,0.01 0,0.02 0.01,0.03 18.47,-16.4 40.97,-32.88 68.44,-49.36 0,-0.01 0,-0.01 0,-0.02"
         style="fill:#fbc742;fill-opacity:1;fill-rule:nonzero;stroke:none"
         id="path5179" />
      <path
         d="m 2697.85,1528.11 c -19.04,9.39 -36.3,18.78 -51.96,28.17 0,0.01 0,0.01 0,0.02 15.66,-9.4 32.92,-18.8 51.96,-28.18 v -0.01"
         style="fill:#fab316;fill-opacity:1;fill-rule:nonzero;stroke:none"
         id="path5181" />
      <path
         d="m 2758.01,1501.03 c -21.8,9.01 -41.8,18.04 -60.16,27.08 v 0.01 c 18.35,-9.04 38.36,-18.08 60.16,-27.09"
         style="fill:#fbc742;fill-opacity:1;fill-rule:nonzero;stroke:none"
         id="path5183" />
      <path
         d="m 2577.44,1605.63 c -61.7,54.78 -78.15,108.65 -82.71,158.6 4.59,-49.95 21.05,-103.8 82.72,-158.57 -0.01,-0.01 -0.01,-0.02 -0.01,-0.03 m -84.29,187.55 c -1.06,0.37 -45.15,15.6 -94,35.46 49.45,-20.09 94,-35.44 94,-35.44 0,-0.01 0,-0.01 0,-0.02"
         style="fill:#f5ac12;fill-opacity:1;fill-rule:nonzero;stroke:none"
         id="path5185" />
      <path
         d="m 2290.59,1881.06 c -8.11,5.37 -14.4,10.48 -18.2,15.16 -11.57,14.23 -28.67,49.51 -44.76,97.24 16.1,-47.73 33.21,-83.01 44.78,-97.26 3.8,-4.67 10.08,-9.78 18.18,-15.14"
         style="fill:#fabb1e;fill-opacity:1;fill-rule:nonzero;stroke:none"
         id="path5187" />
      <path
         d="m 3969.55,2207.87 c 7.32,28.08 13.74,61.66 18.23,101.64 2.16,19.19 3.13,37.76 3.12,55.62 -0.04,156.37 -74.48,259.08 -74.48,259.08 0,0 12.83,26.17 20.13,78.17 -7.28,-52 -20.09,-78.19 -20.09,-78.19 0,0 92.38,-127.51 71.36,-314.64 -4.51,-39.99 -10.94,-73.59 -18.27,-101.68 m -64.03,734.89 c -18.41,39.36 -37.07,62.84 -37.07,62.84 0,0 0.64,9.25 0.64,24.51 0,35.64 -3.44,104.04 -26.37,163.84 -11.64,30.33 -40.96,62.86 -73.96,92.22 -0.02,0.02 -0.03,0.05 -0.04,0.08 33.06,-29.41 62.37,-61.99 74.02,-92.28 32.76,-85.38 25.76,-188.41 25.76,-188.41 0,0 18.63,-23.46 37.02,-62.8"
         style="fill:#fcd46d;fill-opacity:1;fill-rule:nonzero;stroke:none"
         id="path5189" />
      <path
         d="m 3080.47,1428.9 c -50.01,0 -105.18,6.09 -165.67,20.43 -35.52,8.42 -72.86,19.68 -112.12,34.24 -15.67,5.81 -30.55,11.63 -44.67,17.46 -84.09,34.75 -141.42,69.87 -180.56,104.63 -61.67,54.77 -78.13,108.62 -82.72,158.57 -0.89,9.81 -1.33,19.46 -1.56,28.95 0,0 -0.01,0 -0.02,0 0,0.01 0,0.01 0,0.02 0,0 -44.55,15.35 -94,35.44 -39.99,16.25 -83.17,35.6 -108.56,52.42 -8.1,5.36 -14.38,10.47 -18.18,15.14 -11.57,14.25 -28.68,49.53 -44.78,97.26 -26.21,77.72 -49.71,188.45 -42.19,294.97 1.08,16.09 2.46,31.58 3.95,46.39 14.9,-115.08 57.44,-215.75 79.25,-241.41 29.01,-34.25 211.11,-94.26 211.11,-94.26 2.27,-85.66 23.59,-186.73 296.18,-283.45 101.57,-36.02 189.83,-50.04 265.8,-50.03 267.28,0.03 381.65,173.7 381.65,173.7 0,0 146.17,5.62 253.06,86.26 152.78,115.17 152.78,331.91 152.78,331.91 0,0 60.5,42.83 80.63,214.17 14.51,123.47 -27.36,218.55 -51.89,262.04 -3.21,13.63 -7.34,26.29 -12.1,36.21 7.65,20.45 22.51,71.42 19.18,152.49 -4.44,108.17 -69.38,186.34 -69.38,186.34 0,0 6.71,94.26 -24.67,172.42 -0.68,1.65 -1.36,3.3 -2.23,4.96 33,-29.36 62.32,-61.89 73.96,-92.22 22.93,-59.8 26.37,-128.2 26.37,-163.84 0,-15.26 -0.64,-24.51 -0.64,-24.51 v 0 0 c 0,0 18.66,-23.48 37.07,-62.84 16.7,-35.71 33.21,-84.5 35.42,-140.72 1.6,-39.9 -0.67,-73.14 -4.39,-99.66 -7.3,-52 -20.13,-78.17 -20.13,-78.17 v 0 0 c 0,0 74.44,-102.71 74.48,-259.08 0.01,-17.86 -0.96,-36.43 -3.12,-55.62 -4.49,-39.98 -10.91,-73.56 -18.23,-101.64 -26.96,-103.4 -66.02,-132.33 -66.02,-132.33 0,0 0,-160.96 -89.45,-288 -19.06,-27.06 -42.18,-52.58 -70.22,-74.68 -111.76,-88.07 -264.53,-94.17 -264.53,-94.17 0,0 -119.47,-189.79 -398.86,-189.79"
         style="fill:#fcce4e;fill-opacity:1;fill-rule:nonzero;stroke:none"
         id="path5191" />
      <path
         d="m 2829.59,3967.25 c -138.75,61.07 -293.09,76.63 -434.79,27.08 -62.57,-23.07 -133.4,-59.28 -163.3,-120.72 -26.26,-68.7 -38.74,-141.88 -42.44,-215.28 -4.26,-100.32 7.18,-201.28 31.01,-299.43 -43.94,93.24 -66.31,196.48 -69.44,299.78 -2.53,78.56 8.76,159.2 35.88,233.54 35.86,78.75 117.22,121.08 193.59,146.48 150.01,47.65 323.56,18.49 449.49,-71.45"
         style="fill:#fabb1e;fill-opacity:1;fill-rule:nonzero;stroke:none"
         id="path5193" />
      <path
         d="m 2616.67,4156.77 c -24.23,-40.14 -53.16,-68.38 -89,-96.41 -11.91,-8.54 -23.81,-17.4 -40.43,-25.22 -1.28,17.98 2.88,34.6 10.03,49.32 21.73,43.88 68.42,78.19 119.4,72.31"
         style="fill:#fabb1e;fill-opacity:1;fill-rule:nonzero;stroke:none"
         id="path5195" />
      <path
         d="m 2892.76,3572.99 c -192.47,25.06 -410.04,22.67 -551.8,-128.99 -28.48,-29.6 -56.38,-65.88 -79.65,-100.09 -28.49,-45.17 -42.89,-97.58 -50.13,-152.31 -11.88,-99.06 -2.68,-200.79 15.3,-299.45 -27.98,71.45 -44.91,147.82 -50.9,224.62 -5.45,79.15 0.65,159.38 36.62,233.06 51.11,92.62 125.32,176.69 222.59,222.33 143.88,67.57 311.84,50.82 457.97,0.83"
         style="fill:#fabb1e;fill-opacity:1;fill-rule:nonzero;stroke:none"
         id="path5197" />
      <path
         d="m 3036.66,3923.96 c 41.06,-210.81 -133.92,-264.19 -306.35,-220.16 -48.52,11.8 -95.27,28.55 -139.38,51.7 49.68,-3.38 97.88,-9.45 145.57,-13.39 84.56,-4.92 191.95,-18.02 251.03,52.42 28.82,35.52 39.07,84.09 49.13,129.43"
         style="fill:#fabb1e;fill-opacity:1;fill-rule:nonzero;stroke:none"
         id="path5199" />
      <path
         d="m 3212.14,3396.25 c -11.71,94.03 -61.07,173.58 -131.11,233.82 -27.6,25.48 -58.63,45.76 -89.01,68.28 -60.79,39.78 -61.32,38.03 10.36,21.93 57.78,-18.17 113.12,-49.58 154.05,-94.93 54.56,-59.47 86.69,-151.79 55.71,-229.1"
         style="fill:#fabb1e;fill-opacity:1;fill-rule:nonzero;stroke:none"
         id="path5201" />
      <path
         d="m 3297.58,3549.18 c -16.33,49.21 -32.46,92.34 -60.74,133.66 -21.24,33.58 -48.46,59.73 -73.5,91.16 103.45,-5.55 182.97,-130.8 134.24,-224.82"
         style="fill:#fabb1e;fill-opacity:1;fill-rule:nonzero;stroke:none"
         id="path5203" />
      <path
         d="m 3518.61,3462.15 c -74.35,25.44 -214.75,107.52 -272.78,28.86 -8.08,-11.7 -18.27,-23.28 -18.1,-38.5 0.11,-14.33 8.7,-30.93 20.29,-45.62 -9.12,2.93 -17.58,7.88 -25.3,14.33 -47.53,38.62 -10.69,112.86 34.91,138.06 91.02,46.05 205.84,-27.08 260.98,-97.13"
         style="fill:#fabb1e;fill-opacity:1;fill-rule:nonzero;stroke:none"
         id="path5205" />
      <path
         d="m 2506.7,3859.84 c -75.31,-67.89 -168.45,-148.54 -143.36,-258.71 7.45,-33.38 22.91,-66.93 40.46,-101.79 -172.96,119.7 -77.05,320.6 102.9,360.5"
         style="fill:#fabb1e;fill-opacity:1;fill-rule:nonzero;stroke:none"
         id="path5207" />
      <path
         d="m 3868.45,3005.6 c -40.38,10.34 -69.88,30.67 -98.23,58.92 -8.67,9.34 -17.39,18.71 -26.36,32.91 15.58,5.31 31.1,4.71 45.13,1.05 42,-11.67 77.54,-47.36 79.46,-92.88"
         style="fill:#fabb1e;fill-opacity:1;fill-rule:nonzero;stroke:none"
         id="path5209" />
      <path
         d="m 3657.15,3369.58 c 70.24,-40.64 91.14,-132.35 80.37,-208.25 -12.69,-92 -110,-137.47 -189.7,-99.73 68.39,5.24 132.36,37.15 141.06,107.17 8.19,69.11 2.84,137.07 -31.73,200.81"
         style="fill:#fabb1e;fill-opacity:1;fill-rule:nonzero;stroke:none"
         id="path5211" />
      <path
         d="m 3408.13,3167.63 c 165.45,-57.63 273.72,-205.7 238.11,-384.21 -40.32,-262.69 -211.66,-323.65 -426.21,-179.41 -19.8,13.49 -38.27,27.25 -57.11,43.61 l 38.54,27.36 c 31.77,-88.65 12.96,-193.39 -51.12,-263.16 -62.72,-70.94 -167.4,-72.28 -253.22,-70.57 l 16.34,14.17 c -4.87,-20.69 -12.32,-36.64 -22.47,-54.23 -28.3,-48.42 -73.75,-86.21 -123.69,-109.51 -65.64,-31.37 -138.55,-41.76 -210.27,-41.86 69.87,8.24 139.63,24.73 200.97,59.61 61.13,35.17 115.7,93.16 124.21,164.97 l 14.25,0.6 c 78.44,3.19 167.57,4.44 221.34,66.41 49.36,57.24 64.13,143.89 38.82,215.09 l -36.44,91.27 c 85.25,-73.74 186.71,-165.35 303.97,-172.39 139.56,-6.4 184.16,167.97 194.32,279.87 9.82,137.26 -91.72,255.43 -210.34,312.38"
         style="fill:#fabb1e;fill-opacity:1;fill-rule:nonzero;stroke:none"
         id="path5213" />
      <path
         d="m 3875.44,2855.85 c 56.62,-139.5 71.42,-314.51 -18.6,-443.92 -82.03,-110.4 -228.97,-155.51 -360.52,-139.91 -64.29,7.95 -128.4,26.98 -183.87,59.99 80.28,-23.49 164.64,-33.53 247.05,-24.24 311.44,44.16 357.48,275.94 315.94,548.08"
         style="fill:#fabb1e;fill-opacity:1;fill-rule:nonzero;stroke:none"
         id="path5215" />
      <path
         d="m 3677.03,2219.43 c 2.45,-133.74 -116.46,-238.59 -236.82,-273.43 -62.62,-20.02 -132.13,-16.98 -194.01,2.65 -61.14,19.25 -117.44,50.43 -163.49,92.69 56.94,-24.84 114.61,-44.32 172.72,-55 58.07,-10.54 116.32,-10.57 170.07,6.75 112.78,33.5 215.73,110.49 251.53,226.34"
         style="fill:#fabb1e;fill-opacity:1;fill-rule:nonzero;stroke:none"
         id="path5217" />
      <path
         d="m 3214.18,1902.39 c -105.76,-133.83 -287.15,-186.81 -452.59,-182.54 -112.03,2.03 -222.85,31.02 -327.01,68.46 -79.44,27.53 -166.89,64.57 -209.5,142.4 -42.05,74.79 -42.42,164.67 -34.66,246.6 6.69,-80.14 15.12,-163.48 60.24,-230.62 45.12,-66.71 124.23,-92.36 198.08,-115.45 248.56,-84.28 553.12,-109.05 765.44,71.15"
         style="fill:#fabb1e;fill-opacity:1;fill-rule:nonzero;stroke:none"
         id="path5219" />
      <path
         d="m 2220.91,2449.04 c -80.11,-242.67 95.35,-505.66 360.13,-452.29 79.52,15.89 150.94,58.01 216.96,105.69 -54.24,-65.01 -124.71,-118.63 -207.56,-143.04 -291.45,-87.7 -520.08,237.52 -369.53,489.64"
         style="fill:#fabb1e;fill-opacity:1;fill-rule:nonzero;stroke:none"
         id="path5221" />
      <path
         d="m 3441.25,1731.29 c 20.25,3.79 40.31,6.94 60.23,9.96 l 58.76,13.33 28.5,8.89 c 101.27,30.37 195.23,95.6 247.62,187.52 33.4,57.23 55.74,123.06 55.26,189.83 -0.02,89.07 -23.31,176.11 -51.24,263.45 44.55,-69.76 75.94,-147.84 88.93,-230.36 29.24,-171.29 -82.56,-351.95 -242.94,-412.13 -77.01,-32.01 -162.86,-38.49 -245.12,-30.49"
         style="fill:#fabb1e;fill-opacity:1;fill-rule:nonzero;stroke:none"
         id="path5223" />
      <path
         d="m 3282.34,1677.77 c -10.65,-50.87 -99.09,-69.18 -142.94,-76.4 -135.02,-17.15 -292.53,7.61 -394.66,104.08 -19.82,20.17 -36.88,43.48 -46.1,69.58 36.92,-40.85 82.78,-66.07 130.88,-84.8 97.29,-36.39 202.96,-50.17 306.8,-50.32 41.28,2.04 121.68,0.12 146.02,37.86"
         style="fill:#fabb1e;fill-opacity:1;fill-rule:nonzero;stroke:none"
         id="path5225" />
      <path
         d="m 2748.87,3179.91 c 1.76,-88.17 -39.3,-169.39 -127.33,-199.67 -40.53,-14.89 -82.58,-19.51 -123.51,-20.91 -73.65,-1.83 -151.74,-10.71 -209.69,-57.39 -90.43,-74.8 -93.63,-206.55 -94.59,-316.34 -27.77,116.85 -30.76,262.91 65.4,350.36 64.82,58.31 155.49,71.74 238.06,72.18 137.4,0.29 210.91,33.45 251.66,171.77"
         style="fill:#fabb1e;fill-opacity:1;fill-rule:nonzero;stroke:none"
         id="path5227" />
      <path
         d="m 3515.15,3279.03 c -61.65,55.18 -134.64,110.77 -217.34,119.53 -36.24,3.38 -74.67,-6.76 -94.82,-37.35 -19.03,-34.48 -32.47,-76.56 -45.46,-114.19 -12.12,-38.31 -23.88,-79.97 -24.45,-119.32 0.01,-10.16 0.99,-19.06 3.68,-26.89 2.3,-5.17 6.41,-8.44 11.52,-12.54 14.68,-10.83 34.38,-21.09 53.34,-31.84 78.58,-40.36 150.87,-110.05 164.95,-200.58 -34.04,81.99 -102.64,133.3 -182.11,166.75 -19.6,9.16 -39.79,16.75 -61.01,30.55 -65,39.3 -29.11,153.25 -12.84,209.03 15.8,43.96 28.96,85.9 54.7,125.91 30.37,43.28 88.84,57.78 137.51,47.95 91.97,-17.87 161.2,-84.22 212.33,-157.01"
         style="fill:#fabb1e;fill-opacity:1;fill-rule:nonzero;stroke:none"
         id="path5229" />
      <path
         d="m 3023.79,2474.46 c -16.54,51.24 -54.73,99.59 -95.8,131.24 -9.31,7.18 -20.54,11.23 -23.01,11 -1.07,0.44 -1.17,0.17 -2.95,-0.41 -12.09,-4.27 -24.66,-7.26 -37.1,-9.62 -30.28,-5.43 -60.68,-7.53 -91.91,-3.89 36.15,22.25 72.44,36.51 108.99,54.51 4.38,2.26 10.2,4.74 15.23,5.58 80.67,9.88 154.84,-119.82 126.55,-188.41"
         style="fill:#fabb1e;fill-opacity:1;fill-rule:nonzero;stroke:none"
         id="path5231" />
      <path
         d="m 2487.24,2750.56 c -146.39,39.69 -262.02,-20.64 -265.74,-180.78 0.06,-57.28 1.76,-130.78 55.7,-163.5 52.5,-26.76 120.75,-13 170.14,16.34 75.29,45.55 126.49,129.09 159.44,210.67 166.31,-22.08 315.71,-7.99 399.98,156.42 41.64,81.83 59.5,174.38 67.57,265.73 14.4,178.95 -60.71,292.69 -246.5,303.38 -94.12,6.83 -188.81,-13.41 -275.88,-49.05 133.32,70.77 333.14,110.32 464.67,16.45 83.95,-61.95 104.84,-175.15 99.87,-273.19 -9.55,-130.39 -34.01,-266.68 -124.22,-368.8 -95.46,-109.31 -240.49,-118.47 -372.85,-100.12 l 24.66,15.2 c -18.33,-44.15 -41.34,-82.83 -70.32,-120.17 -42.83,-54.8 -101.78,-104.06 -171.89,-120.24 -48.25,-9.94 -99.51,-10.11 -143.69,16.06 -66.09,41.88 -69.01,126.99 -64.58,196.34 12.1,168.8 140.16,237.23 293.64,179.26"
         style="fill:#fabb1e;fill-opacity:1;fill-rule:nonzero;stroke:none"
         id="path5233" />
      <path
         d="m 3187.94,2536.67 c 75.19,-28 140.77,-95.11 155.44,-176.45 31.06,-168.04 -139.73,-320.05 -292.75,-349.34 -78.53,-16.84 -160.08,-12.51 -236.84,7.87 77.04,0.47 154.07,6.11 226.89,29.64 89.45,27.41 166.82,82.32 220.05,157.69 86.89,117.62 40.66,250.21 -72.79,330.59"
         style="fill:#fabb1e;fill-opacity:1;fill-rule:nonzero;stroke:none"
         id="path5235" />
      <path
         d="m 2270.38,4198.89 c -30.82,-49.24 -40.21,-99.4 -49.06,-154.48 -7.87,-55.57 -13.34,-108.38 -14.12,-166.07 -66.47,84.65 -46.45,279.36 63.18,320.55"
         style="fill:#fabb1e;fill-opacity:1;fill-rule:nonzero;stroke:none"
         id="path5237" />
      <path
         d="m 2255.46,3009.04 c -5.28,0 -9.22,2.37 -11.2,7.74 -10.94,29.54 29.53,323.83 75.48,328.2 0.21,0.02 0.42,0.03 0.63,0.03 30.22,0 53.94,-208.53 31.1,-249.46 -21.48,-38.49 -72.27,-86.51 -96.01,-86.51"
         style="fill:#fef1c3;fill-opacity:1;fill-rule:nonzero;stroke:none"
         id="path5239" />
      <path
         d="m 3760.1,2578.98 c -5.28,0 -9.22,1.49 -11.2,4.88 -10.94,18.64 29.53,204.36 75.48,207.12 0.21,0.01 0.42,0.02 0.63,0.02 7.57,0 14.73,-8.26 20.85,-21.04 -2.55,-6.83 -4.31,-10.26 -4.31,-10.26 0,0 6.9,-9.1 16.41,-25.95 9.16,-38.92 10.83,-85.84 -1.85,-100.18 -21.48,-24.29 -72.27,-54.59 -96.01,-54.59"
         style="fill:#fef1c3;fill-opacity:1;fill-rule:nonzero;stroke:none"
         id="path5241" />
      <path
         d="m 3857.96,2733.75 c -9.51,16.85 -16.41,25.95 -16.41,25.95 0,0 1.76,3.43 4.31,10.26 4.76,-9.92 8.89,-22.58 12.1,-36.21"
         style="fill:#fde79d;fill-opacity:1;fill-rule:nonzero;stroke:none"
         id="path5243" />
      <path
         d="m 2776.62,2684.99 c -45.71,0 -76.51,15.01 -74.4,29.3 2.93,19.74 160.66,152.01 217.92,152.01 4.59,0 8.53,-0.85 11.7,-2.68 42.19,-24.34 4.93,-137.85 -78.77,-165.74 -27.66,-9.23 -53.87,-12.89 -76.45,-12.89"
         style="fill:#fef1c3;fill-opacity:1;fill-rule:nonzero;stroke:none"
         id="path5245" />
      <path
         d="m 2889.66,3792.93 c -28.82,0 -48.25,12.24 -46.91,23.89 1.84,16.09 101.29,123.9 137.4,123.9 2.9,0 5.38,-0.69 7.38,-2.18 26.6,-19.84 3.11,-112.36 -49.67,-135.1 -17.44,-7.52 -33.97,-10.51 -48.2,-10.51"
         style="fill:#fef1c3;fill-opacity:1;fill-rule:nonzero;stroke:none"
         id="path5247" />
      <path
         d="m 2784.26,2270.69 c -15.13,0 -25.39,6.17 -24.97,12.55 0.61,9.45 55.88,75.65 76.37,75.65 1.47,0 2.76,-0.34 3.84,-1.06 15.94,-10.73 5,-64.95 -24.85,-79.62 -11.02,-5.41 -21.54,-7.52 -30.39,-7.52"
         style="fill:#fef1c3;fill-opacity:1;fill-rule:nonzero;stroke:none"
         id="path5249" />
      <path
         d="m 2325.38,2432.26 c -3.33,0 -6.35,0.45 -8.92,1.41 -26.26,9.85 -65.64,31.73 -44.85,53.61 9.66,10.17 33.74,14.43 58.39,14.43 28.39,0 57.54,-5.65 66.32,-14.43 17.27,-17.27 -40.24,-55.02 -70.94,-55.02"
         style="fill:#fef1c3;fill-opacity:1;fill-rule:nonzero;stroke:none"
         id="path5251" />
      <path
         d="m 3207.3,2219.43 c -6.33,0 -11.29,3.79 -13.83,13.15 -9.16,33.8 41.76,137.17 65.42,150.41 1.86,1.05 3.62,1.54 5.25,1.54 22.56,0 23.27,-93.37 2.01,-119.23 -16.48,-20.06 -42.33,-45.87 -58.85,-45.87"
         style="fill:#fef1c3;fill-opacity:1;fill-rule:nonzero;stroke:none"
         id="path5253" />
      <path
         d="m 3548.19,2945.63 c -23.24,0 -69.01,32.55 -71.49,54.57 -2.86,25.49 -1.73,65.36 20.64,65.36 2.08,0 4.34,-0.34 6.8,-1.08 28.93,-8.6 63.74,-89.08 56.56,-111.15 -1.76,-5.4 -6.34,-7.7 -12.51,-7.7"
         style="fill:#fef1c3;fill-opacity:1;fill-rule:nonzero;stroke:none"
         id="path5255" />
      <path
         d="m 2982.29,2866.3 c -21.22,0 -48.01,53.29 -35.3,68.39 9.96,11.84 27.24,27.19 42.9,27.19 5.84,0 11.44,-2.12 16.37,-7.35 18.16,-19.26 -0.7,-79.33 -19.26,-87.27 -1.52,-0.66 -3.1,-0.96 -4.71,-0.96"
         style="fill:#fef1c3;fill-opacity:1;fill-rule:nonzero;stroke:none"
         id="path5257" />
      <path
         d="m 3162.22,2142.38 c -14.08,0 -28.95,17.95 -26.21,28.83 2.52,10.04 21.64,17.18 34.34,17.18 5.94,0 10.48,-1.57 11.25,-5.13 2.42,-11.18 2.8,-31.86 -12.7,-39.36 -2.15,-1.05 -4.41,-1.52 -6.68,-1.52"
         style="fill:#fef1c3;fill-opacity:1;fill-rule:nonzero;stroke:none"
         id="path5259" />
      <path
         d="m 3564.6,2142.38 c -14.07,0 -28.94,17.95 -26.2,28.83 2.52,10.04 21.64,17.18 34.34,17.18 5.94,0 10.48,-1.57 11.25,-5.13 2.42,-11.18 2.8,-31.86 -12.7,-39.36 -2.15,-1.05 -4.41,-1.52 -6.69,-1.52"
         style="fill:#fef1c3;fill-opacity:1;fill-rule:nonzero;stroke:none"
         id="path5261" />
      <path
         d="m 2308.03,4108.12 c -12.93,0 -24.39,4.4 -27.99,17.91 -6.69,25.06 36.5,67.69 57.17,67.69 0.42,0 0.84,-0.02 1.25,-0.06 23.45,-2.13 22.9,-70.55 3.15,-78.35 -9.31,-3.68 -22.03,-7.19 -33.58,-7.19"
         style="fill:#fef1c3;fill-opacity:1;fill-rule:nonzero;stroke:none"
         id="path5263" />
    </g>
    <g
       id="g4660"
       transform="rotate(-6.2756371,195.66156,1049.9941)">
      <ellipse
         style="opacity:1;fill:#ffffff;stroke:#333333;stroke-width:1.2;stroke-miterlimit:4;stroke-dasharray:none"
         id="path4123"
         cx="163.18538"
         cy="97.52771"
         rx="15.778034"
         ry="20.244562" />
      <ellipse
         style="opacity:1;fill:#000000;stroke:#000000;stroke-width:1.2;stroke-miterlimit:4;stroke-dasharray:none"
         id="path4293"
         cx="164.11154"
         cy="99.865105"
         rx="10.166986"
         ry="13.344205" />
      <ellipse
         style="opacity:1;fill:#ffffff;stroke:#ffffff;stroke-width:1.2;stroke-miterlimit:4;stroke-dasharray:none"
         id="path4441"
         cx="162.44049"
         cy="-91.45668"
         rx="1.2303969"
         ry="2.6124506"
         transform="rotate(58.733454)" />
    </g>
    <g
       id="g31240">
      <g
         id="g31234"
         transform="rotate(3.3049895,100.54132,106.78537)">
        <ellipse
           style="fill:#ffffff;stroke:#333333;stroke-width:1.2;stroke-miterlimit:4;stroke-dasharray:none"
           id="path4123-2"
           cx="-107.18868"
           cy="100.11123"
           rx="15.778034"
           ry="20.244562"
           transform="matrix(-0.9979376,-0.06419155,-0.06419155,0.9979376,0,0)" />
        <ellipse
           style="fill:#000000;stroke:#000000;stroke-width:1.2;stroke-miterlimit:4;stroke-dasharray:none"
           id="path4293-9"
           cx="-106.26252"
           cy="102.44862"
           rx="10.166986"
           ry="13.344205"
           transform="matrix(-0.9979376,-0.06419155,-0.06419155,0.9979376,0,0)" />
      </g>
      <ellipse
         style="fill:#ffffff;stroke:#ffffff;stroke-width:1.2;stroke-miterlimit:4;stroke-dasharray:none"
         id="path4441-6"
         cx="139.19432"
         cy="-15.781719"
         rx="1.2303969"
         ry="2.6124506"
         transform="rotate(52.457817)" />
    </g>
  </g>
</svg>
